<svg xmlns="http://www.w3.org/2000/svg" xmlns:xlink="http://www.w3.org/1999/xlink" fill="none" version="1.1" width="400" height="400" viewBox="0 0 400 400"><defs><clipPath id="master_svg0_378_12712"><rect x="0" y="0" width="400" height="400" rx="0"/></clipPath></defs><g clip-path="url(#master_svg0_378_12712)"><g><g><path d="M119.99998298828125,152.00003051757812L280.0003129882813,152.00003051757812L282.60031298828125,152.53336351757812L284.7003129882812,153.96670051757812L286.13331298828126,156.0667005175781L286.6663129882812,158.66670051757814L286.6663129882812,175.33333051757813L113.33331298828125,175.33333051757813L113.33331298828125,158.66670051757814L113.86664598828125,156.0667005175781L115.29998298828124,153.96670051757812L117.39998298828125,152.53336351757812L119.99998298828125,152.00003051757812ZM219.73331298828126,228.66673051757812L180.26661298828125,228.66673051757812L178.83331298828125,228.96673051757813L177.73331298828126,229.7333305175781L176.96661298828124,230.83333051757813L176.66661298828126,232.26673051757814L176.66661298828126,248.40003051757813L176.96661298828124,249.83333051757813L177.73331298828126,250.93333051757813L178.83331298828125,251.7000305175781L180.26661298828125,252.00003051757812L219.73331298828126,252.00003051757812L221.16631298828125,251.7000305175781L222.26631298828124,250.93333051757813L223.03331298828124,249.83333051757813L223.33331298828125,248.40003051757813L223.33331298828125,232.26673051757814L223.03331298828124,230.83333051757813L222.26631298828124,229.7333305175781L221.16631298828125,228.96673051757813L219.73331298828126,228.66673051757812Z" fill-rule="evenodd" fill="currentColor" fill-opacity="0.10000000149011612"/></g><g><path d="M304.333,77.6667L313.333,77.6667L315.367,78.5333L316,80.3333L315.367,82.13329999999999L313.333,83L304.333,83L304.333,92L303.467,94.0333L301.667,94.66669999999999L299.86699999999996,94.0333L299,92L299,83L290,83L287.967,82.13329999999999L287.33299999999997,80.3333L287.967,78.5333L290,77.6667L299,77.6667L299,68.66667L299.86699999999996,66.633335L301.667,66L303.467,66.633335L304.333,68.66667L304.333,77.6667ZM177.067,108.66669999999999L178.333,108.16669999999999L179.433,108.66669999999999L179.933,109.7333L179.433,111.0333L177.083,113.38329999999999L179.433,115.7333L179.933,117L179.433,118.1L178.333,118.6L177.067,118.1L174.7,115.7333L172.367,118.1L171.067,118.6L170,118.1L169.5,117L170,115.7333L172.35,113.38329999999999L170,111.0333L169.5,109.7333L170,108.66669999999999L171.067,108.16669999999999L172.367,108.66669999999999L174.7,111.0333L177.067,108.66669999999999ZM110.6667,272.27099999999996L110.6667,158.39600000000002L111.3621,155.0059L113.3811,152.0478L116.3392,150.02870000000001L116.8641,149.9211L119.7293,149.3333L280.27099999999996,149.3333L283.661,150.02870000000001L286.619,152.0478L288.63800000000003,155.0059L289.33299999999997,158.39600000000002L289.33299999999997,272.27099999999996L288.63800000000003,275.661L286.619,278.619L283.661,280.63800000000003L280.27099999999996,281.33299999999997L119.7293,281.33299999999997L116.3393,280.63800000000003L113.3811,278.619L111.3621,275.661L110.6667,272.27099999999996ZM284,172.667L284,158.9373L283.629,157.1274L282.781,155.8856L281.539,155.03789999999998L279.72900000000004,154.6667L120.2707,154.6667L118.4607,155.03789999999998L117.2189,155.8856L116.3713,157.1274L116,158.9374L116,172.667L284,172.667ZM127.6333,163.8L125.2666,161.4667L124.8,160.26670000000001L125.2666,159.1L126.4666,158.6L127.6333,159.1L130,161.4667L132.3666,159.1L133.5333,158.6L134.7,159.1L135.2,160.26670000000001L134.7,161.4667L132.3666,163.8L134.7,166.167L135.2,167.333L134.7,168.53300000000002L133.5333,169L132.3666,168.53300000000002L130,166.167L127.6333,168.53300000000002L126.4666,169L125.2666,168.53300000000002L124.8,167.333L125.2666,166.167L127.6333,163.8ZM152.933,165.63330000000002L153.333,163.6667L152.933,161.7L151.86700000000002,160.13330000000002L150.3,159.0667L148.333,158.6667L146.36700000000002,159.0667L144.8,160.13330000000002L143.73329999999999,161.7L143.3333,163.6667L143.73329999999999,165.63330000000002L144.8,167.2L146.36700000000002,168.267L148.333,168.667L150.3,168.267L151.86700000000002,167.2L152.933,165.63330000000002ZM57.3333,162L58.2,159.9667L60,159.3333L61.8,159.9667L62.6667,162L62.6667,169.333L70,169.333L72.0333,170.2L72.66669999999999,172L72.0333,173.8L70,174.667L62.6667,174.667L62.6667,182L61.8,184.03300000000002L60,184.667L58.2,184.03300000000002L57.3333,182L57.3333,174.667L50,174.667L47.96667,173.8L47.333330000000004,172L47.96667,170.2L50,169.333L57.3333,169.333L57.3333,162ZM116,178L116,271.72900000000004L116.3713,273.539L117.2189,274.781L118.4607,275.629L120.2707,276L279.72900000000004,276L281.539,275.629L282.781,274.781L283.629,273.539L284,271.72900000000004L284,178L116,178ZM182.911,226.722L182.911,212.227L183.64,208.626L185.773,205.473L188.929,203.338L192.564,202.611L207.436,202.611L211.071,203.338L214.227,205.473L216.36,208.626L217.089,212.227L217.089,226.722L219.935,226.722L221.565,227.063L221.953,227.145L223.663,228.337L224.855,230.047L225.278,232.065L225.278,248.601L224.855,250.62L223.663,252.33L221.953,253.522L219.935,253.944L180.065,253.944L178.047,253.522L176.337,252.33L175.145,250.62L174.722,248.601L174.722,232.065L175.145,230.047L176.337,228.337L178.047,227.145L180.065,226.722L182.911,226.722ZM211.644,226.722L188.356,226.722L188.356,212.773L188.76,210.774L189.694,209.394L191.071,208.462L193.103,208.056L206.897,208.056L208.929,208.462L210.306,209.394L211.24,210.774L211.644,212.773L211.644,226.722ZM183.728,230.611C184.219,231.092,184.892,231.389,185.633,231.389C186.375,231.389,187.048,231.092,187.538,230.611L212.462,230.611C212.952,231.092,213.625,231.389,214.367,231.389C215.108,231.389,215.781,231.092,216.272,230.611L219.532,230.611L220.38,230.789L220.87,231.13L221.211,231.62L221.389,232.468L221.389,248.199L221.211,249.047L220.87,249.537L220.38,249.878L219.532,250.056L180.468,250.056L179.62,249.878L179.13,249.537L178.789,249.047L178.611,248.199L178.611,232.468L178.789,231.62L179.13,231.13L179.62,230.789L180.468,230.611L183.728,230.611ZM200.5,239.167L199.5,239.167L198.333,240.1L197.367,244.767L197.367,245L197.7,245.833L198.533,246.167L201.467,246.167L201.733,246.133L202.467,245.633L202.633,244.767L201.667,240.1L200.5,239.167ZM310.667,242L311.533,239.967L313.333,239.333L315.133,239.967L316,242L316,249.333L323.333,249.333L325.367,250.2L326,252L325.367,253.8L323.333,254.667L316,254.667L316,262L315.133,264.033L313.333,264.66700000000003L311.533,264.033L310.667,262L310.667,254.667L303.333,254.667L301.3,253.8L300.667,252L301.3,250.2L303.333,249.333L310.667,249.333L310.667,242ZM90.9667,269.8L92.2667,269.3L93.33330000000001,269.8L93.83330000000001,270.9L93.33330000000001,272.16700000000003L90.9833,274.517L93.33330000000001,276.86699999999996L93.83330000000001,278.16700000000003L93.33330000000001,279.233L92.2667,279.767L90.9667,279.233L88.63329999999999,276.86699999999996L86.2667,279.233L85,279.767L83.9,279.233L83.4,278.16700000000003L83.9,276.86699999999996L86.25,274.517L83.9,272.16700000000003L83.4,270.9L83.9,269.8L85,269.3L86.2667,269.8L88.63329999999999,272.16700000000003L90.9667,269.8ZM46.666669999999996,309.66700000000003L44.766668,308.9L44,307L44.766668,305.1L46.666669999999996,304.33299999999997L280,304.33299999999997L281.9,305.1L282.66700000000003,307L281.9,308.9L280,309.66700000000003L46.666669999999996,309.66700000000003ZM293.33299999999997,309.66700000000003L291.433,308.9L290.66700000000003,307L291.433,305.1L293.33299999999997,304.33299999999997L301.667,304.33299999999997L303.567,305.1L304.333,307L303.567,308.9L301.667,309.66700000000003L293.33299999999997,309.66700000000003ZM323.333,309.66700000000003L321.433,308.9L320.667,307L321.433,305.1L323.333,304.33299999999997L353.333,304.33299999999997L355.233,305.1L356,307L355.233,308.9L353.333,309.66700000000003L323.333,309.66700000000003ZM123.3333,334.667L121.4333,333.9L120.6667,332L121.4333,330.1L123.3333,329.333L146.667,329.333L148.567,330.1L149.333,332L148.567,333.9L146.667,334.667L123.3333,334.667ZM161.667,334.667L159.767,333.9L159,332L159.767,330.1L161.667,329.333L263.33299999999997,329.333L265.233,330.1L266,332L265.233,333.9L263.33299999999997,334.667L161.667,334.667Z" fill-rule="evenodd" fill="currentColor" fill-opacity="1"/></g></g></g></svg>
