<svg xmlns="http://www.w3.org/2000/svg" xmlns:xlink="http://www.w3.org/1999/xlink" fill="none" version="1.1" width="150" height="150" viewBox="0 0 150 150"><defs><clipPath id="master_svg0_393_15006"><rect x="0" y="0" width="150" height="150" rx="0"/></clipPath><linearGradient x1="0.6843297481536865" y1="0.058302320539951324" x2="0.5479339361190796" y2="0.4136097729206085" id="master_svg1_393_14502"><stop offset="0.28901700861752033%" stop-color="#606673" stop-opacity="0"/><stop offset="100%" stop-color="#373C47" stop-opacity="1"/></linearGradient><linearGradient x1="-0.3156702220439911" y1="0.058302320539951324" x2="-0.452066034078598" y2="0.4136097729206085" id="master_svg2_393_14499"><stop offset="0.28901700861752033%" stop-color="#606673" stop-opacity="0"/><stop offset="100%" stop-color="#373C47" stop-opacity="1"/></linearGradient><linearGradient x1="0.22419212758541107" y1="0.6411315202713013" x2="0.46444249153137207" y2="0.14639686048030853" id="master_svg3_393_14480"><stop offset="0.28901700861752033%" stop-color="#6C80AA" stop-opacity="0"/><stop offset="100%" stop-color="#5D6A86" stop-opacity="1"/></linearGradient><linearGradient x1="0.5396924018859863" y1="0.8287037014961243" x2="0.5585827827453613" y2="0.15850970149040222" id="master_svg4_393_14474"><stop offset="0.28901700861752033%" stop-color="#314F91" stop-opacity="0"/><stop offset="100%" stop-color="#324264" stop-opacity="1"/></linearGradient><linearGradient x1="0.5000799298286438" y1="0.03481012582778931" x2="0.5000799298286438" y2="0.5965189933776855" id="master_svg5_393_14453"><stop offset="0%" stop-color="#B0BACC" stop-opacity="1"/><stop offset="100%" stop-color="#969EAE" stop-opacity="1"/></linearGradient><linearGradient x1="0.5001598000526428" y1="0.03481012582778931" x2="0.5001598000526428" y2="0.594936728477478" id="master_svg6_393_14487"><stop offset="0%" stop-color="#B0BACC" stop-opacity="1"/><stop offset="100%" stop-color="#969EAE" stop-opacity="1"/></linearGradient><linearGradient x1="0.7051383256912231" y1="0.09561304748058319" x2="0.4577075242996216" y2="0.5838020443916321" id="master_svg7_393_14477"><stop offset="0%" stop-color="#B0BACC" stop-opacity="1"/><stop offset="100%" stop-color="#969EAE" stop-opacity="1"/></linearGradient></defs><g clip-path="url(#master_svg0_393_15006)"><g><g><path d="M125.53164408447266,59.05122302612305C127.87534408447266,59.05122302612305,129.77627408447265,57.367413026123046,129.77627408447265,55.279883026123045C129.77627408447265,53.20219302612305,127.87534408447266,51.51838302612305,125.53164408447266,51.51838302612305C123.18794408447266,51.51838302612305,121.28812408447266,53.20219302612305,121.28812408447266,55.279883026123045C121.28812408447266,57.367413026123046,123.18794408447266,59.05122302612305,125.53164408447266,59.05122302612305Z" fill="#EAEEF9" fill-opacity="1"/></g><g><path d="M12.79313,79.43421313354492C14.334520000000001,79.43421313354492,15.58516,78.33136313354493,15.58516,76.95280313354492C15.58516,75.58409313354493,14.334520000000001,74.48124313354492,12.79313,74.48124313354492C11.25064,74.48124313354492,10,75.58409313354493,10,76.95280313354492C10,78.33136313354493,11.25064,79.43421313354492,12.79313,79.43421313354492Z" fill="#EAEEF9" fill-opacity="1"/></g><g><path d="M25.628007091064454,124.02075525146485C27.170507091064454,124.02075525146485,28.420037091064454,122.90806525146485,28.420037091064454,121.53935525146484C28.420037091064454,120.17063525146484,27.170507091064454,119.05794525146484,25.628007091064454,119.05794525146484C24.085517091064453,119.05794525146484,22.835987091064453,120.17063525146484,22.835987091064453,121.53935525146484C22.835987091064453,122.90806525146485,24.085517091064453,124.02075525146485,25.628007091064454,124.02075525146485Z" fill="#EAEEF9" fill-opacity="1"/></g><g><path d="M40.5535774230957,124.02076749877929L79.7362774230957,113.13016749877929L79.7362774230957,68.4549674987793L40.5535774230957,79.2667674987793L40.5535774230957,124.02076749877929Z" fill="#B7BFCD" fill-opacity="1"/></g><g style="opacity:0.4000000059604645;"><path d="M118.91893657226562,124.02076749877929L79.73623657226562,113.13016749877929L79.73623657226562,68.4549674987793L118.91893657226562,79.2667674987793L118.91893657226562,124.02076749877929Z" fill="#6D7C9A" fill-opacity="1"/></g><g style="opacity:0.12999999523162842;"><g><path d="M40.5535774230957,124.02077131347656L79.7362774230957,113.13017131347655L79.7362774230957,68.45497131347656L40.5535774230957,79.26677131347657L40.5535774230957,124.02077131347656Z" fill="url(#master_svg1_393_14502)" fill-opacity="1"/></g><g><path d="M118.91894038696289,124.02077131347656L79.73624038696289,113.13017131347655L79.73624038696289,68.45497131347656L118.91894038696289,79.26677131347657L118.91894038696289,124.02077131347656Z" fill="url(#master_svg2_393_14499)" fill-opacity="1"/></g></g><g><path d="M79.7362774230957,135.00001173095703L40.5535774230957,124.09951173095703L40.5535774230957,79.43421173095703L79.7362774230957,90.33471173095703L79.7362774230957,135.00001173095703Z" fill="#EDF1F9" fill-opacity="1"/></g><g><path d="M79.73623657226562,135.00001173095703L118.91893657226562,124.09951173095703L118.91893657226562,79.43421173095703L79.73623657226562,90.33471173095703L79.73623657226562,135.00001173095703Z" fill="#DAE1ED" fill-opacity="1"/></g><g style="opacity:0.09000000357627869;"><path d="M70.85857742309571,127.12251173095703L40.5535774230957,124.09951173095703L40.5535774230957,79.43421173095703L79.7362774230957,90.33471173095703L70.85857742309571,127.12251173095703Z" fill="url(#master_svg3_393_14480)" fill-opacity="1"/></g><g style="opacity:0.20000000298023224;"><path d="M88.61389657226563,119.24501173095703L118.91893657226562,124.09951173095703L118.91893657226562,79.43421173095703L79.73623657226562,90.33471173095703L88.61389657226563,119.24501173095703Z" fill="url(#master_svg4_393_14474)" fill-opacity="1"/></g><g><path d="M79.73619492492676,68.45497776489258L61.31399492492676,56.22517776489258L21.476594924926758,68.12017776489257L40.553594924926756,79.26677776489258L79.73619492492676,68.45497776489258Z" fill="#DAE1ED" fill-opacity="1"/></g><g><path d="M79.73623657226562,68.45497776489258L98.15853657226563,56.22517776489258L137.99583657226563,68.12017776489257L118.91893657226562,79.26677776489258L79.73623657226562,68.45497776489258Z" fill="#DAE1ED" fill-opacity="1"/></g><g><path d="M40.553594924926756,79.43421173095703L79.73619492492676,90.33471173095703L60.190994924926756,101.39271173095703L21.476594924926758,89.99991173095702L40.553594924926756,79.43421173095703Z" fill="#EFF4FD" fill-opacity="1"/></g><g><path d="M118.91893657226562,79.43421173095703L79.73623657226562,90.33471173095703L99.28043657226563,101.39271173095703L137.99583657226563,89.99991173095702L118.91893657226562,79.43421173095703Z" fill="#EDF1F9" fill-opacity="1"/></g><g><path d="M92.36076665039063,27.04444089691162L91.59106665039063,25.197156896911622L89.74486665039063,25.96638489691162L90.51456665039062,27.81366089691162L92.36076665039063,27.04444089691162ZM95.37956665039063,34.38509089691162Q94.80416665039063,32.91487089691162,93.88716665039063,30.70304089691162L92.03956665039063,31.469020896911623Q92.94896665039062,33.66227089691162,93.51706665039063,35.11400089691162L95.37956665039063,34.38509089691162ZM97.86026665039063,42.02447089691162Q97.41726665039063,40.15427089691162,96.75796665039063,38.16417089691162L94.85946665039063,38.79307089691162Q95.49126665039063,40.70027089691162,95.91406665039062,42.48547089691162L97.86026665039063,42.02447089691162ZM99.05086665039062,50.00037089691162Q98.87386665039062,47.83157089691162,98.60996665039062,46.00207089691162L96.63046665039062,46.28747089691162Q96.88546665039063,48.05587089691162,97.05746665039062,50.16317089691162L99.05086665039062,50.00037089691162ZM82.49876665039062,52.82787089691162Q81.25466665039062,52.245870896911626,79.79555665039062,52.06357089691162L79.54761665039062,54.04817089691162Q80.70443665039062,54.19267089691162,81.66986665039063,54.64817089691162L81.69426665039063,54.65967089691162L81.71906665039063,54.66977089691162Q82.32206665039062,54.91557089691162,82.87336665039062,55.24077089691162L83.88946665039063,53.518070896911624Q83.22366665039063,53.12537089691162,82.49876665039062,52.82787089691162ZM72.00288165039062,54.453470896911625Q71.82005465039063,54.65137089691162,71.65269465039063,54.86137089691162L73.21697665039062,56.107570896911625Q73.32912665039062,55.96687089691162,73.45096665039063,55.83347089691162Q74.49240665039062,54.84777089691162,76.04998665039062,54.36127089691162L75.45372665039062,52.452170896911625Q73.43182665039062,53.08367089691162,72.04599665039062,54.40967089691162L72.02376265039062,54.43087089691162L72.00288165039062,54.453470896911625ZM99.33196665039063,54.77087089691162L99.29736665039063,53.97537089691162L97.29926665039062,54.06237089691162L97.32896665039063,54.74517089691162Q97.31686665039062,54.92147089691162,97.29586665039062,55.23207089691162Q97.17646665039062,57.00207089691162,97.07716665039062,57.87987089691162L99.06456665039062,58.10467089691162Q99.16886665039063,57.18187089691162,99.29136665039063,55.36667089691162Q99.31566665039063,55.00637089691162,99.32806665039062,54.82727089691162L99.33196665039063,54.77087089691162ZM88.92406665039063,60.34907089691162Q88.36946665039062,58.19477089691162,87.09806665039062,56.44327089691162L85.47956665039062,57.61807089691162Q86.52746665039062,59.06177089691162,86.98726665039062,60.84777089691162L88.92406665039063,60.34907089691162ZM70.04486365039062,59.057470896911624Q69.88294665039062,61.34797089691162,70.92421565039062,63.41707089691162L72.71074665039062,62.51797089691162Q71.91675765039062,60.94027089691162,72.03988665039063,59.19847089691162L70.04486365039062,59.057470896911624ZM97.28636665039062,64.06457089691162Q97.80276665039062,63.20617089691162,98.17226665039063,62.19847089691162L96.29446665039063,61.50997089691162Q95.98646665039062,62.35017089691162,95.56086665039062,63.052970896911624L95.54616665039063,63.07727089691162L95.53276665039063,63.10247089691162Q95.11176665039062,63.89627089691162,94.50016665039063,64.63827089691162L96.04326665039062,65.91047089691162Q96.77426665039063,65.02387089691163,97.28636665039062,64.06457089691162ZM88.83996665039062,68.49597089691162Q89.31626665039062,66.48127089691162,89.36936665039062,64.55187089691162L87.37016665039063,64.49677089691161Q87.32046665039063,66.30177089691162,86.85256665039063,68.20627089691162L88.50696665039062,68.61277089691163Q88.46576665039062,68.62667089691162,88.42406665039063,68.64047089691162L89.05316665039062,70.53897089691162Q91.08996665039062,69.86407089691161,92.85146665039062,68.72077089691163L91.76266665039063,67.04307089691162Q90.39756665039063,67.92907089691161,88.83996665039062,68.49597089691162ZM73.36834665039062,66.89597089691162Q74.83621665039063,68.40717089691162,76.74938665039062,69.46187089691162L77.71496665039062,67.71037089691163Q76.06300665039062,66.79967089691162,74.80296665039063,65.50247089691162L73.36834665039062,66.89597089691162ZM84.28166665039062,71.35537089691162Q84.59396665039063,71.35217089691162,84.90926665039062,71.33527089691162L84.80196665039063,69.33817089691162Q84.53016665039063,69.35277089691162,84.26146665039063,69.35547089691161Q82.69716665039063,69.37997089691163,81.14706665039063,69.02207089691163L80.69713665039063,70.97087089691162Q82.48486665039063,71.38357089691162,84.28166665039062,71.35537089691162ZM86.15826665039063,76.32907089691162Q87.06876665039063,74.36257089691162,87.66786665039062,72.57217089691162L85.77126665039063,71.93747089691162Q85.20726665039062,73.62277089691162,84.34336665039062,75.48877089691162L86.15826665039063,76.32907089691162ZM82.82996665039063,83.49647089691163Q83.59716665039062,81.71067089691162,84.44746665039062,79.90997089691163L82.63896665039063,79.05597089691162Q81.77356665039062,80.88867089691162,80.99238665039063,82.70697089691163L82.82996665039063,83.49647089691163ZM80.62081665039062,88.97317089691163L81.34156665039063,87.11527089691162L79.47694665039063,86.39187089691163L78.75620665039062,88.24977089691163L80.62081665039062,88.97317089691163Z" fill-rule="evenodd" fill="#ABB5CC" fill-opacity="1"/></g><g><path d="M97.3495176171875,18.58066C97.3361976171875,20.52049,95.2976676171875,21.71196,92.7131576171875,21.09161C89.9910476171875,20.67804,88.0645946171875,20.25462,87.9403076171875,18.52158C88.0024512171875,16.7393,90.1907976171875,16.05002,92.7508876171875,15.262269C95.8214476171875,14.179115,97.1752976171875,16.68022,97.3495176171875,18.58066Z" fill="#DAE2EB" fill-opacity="1"/></g><g><path d="M79.761759796875,24.528160371551515C81.141126796875,25.788550371551516,84.048556796875,26.152890371551514,85.465656796875,24.222910371551514C87.020356796875,22.095990371551515,88.349786796875,20.540180371551514,86.92159679687501,19.122235371551515C85.542226796875,17.861838371551514,84.199476796875,18.708668371551514,81.128916796875,19.791820371551513C78.667587796875,20.904520371551513,78.146025796875,23.139750371551514,79.761759796875,24.528160371551515Z" fill="#DAE2EB" fill-opacity="1"/></g><g><path d="M86.12593717041015,16.48327882331085C87.38212717041016,16.01062982331085,88.88577717041015,16.355269923310853,89.55604717041015,17.261180823310852C89.84234717041015,17.546741823310853,90.17747717041016,17.98985182331085,90.27735717041016,18.324641823310852C91.34599717041016,20.540181823310853,91.00975717041015,22.736031823310853,89.56824717041016,23.248071823310852C87.98913717041016,23.976731823310853,85.81410717041015,22.736031823310853,84.98182817041015,20.638651823310852C84.78319017041015,19.978911823310852,84.68442617041016,19.65396182331085,84.53461587041015,19.151771823310852C84.37370817041015,17.960311823310853,84.87085717041016,16.95592782331085,86.12593717041015,16.48327882331085C86.31236717041016,16.443891823310853,86.12593717041015,16.48327882331085,86.12593717041015,16.48327882331085Z" fill="#989FB0" fill-opacity="1"/></g><g><path d="M28.420034924926757,52.158428383789065L25.989774924926756,52.158428383789065L25.989774924926756,50.00196838378906L23.90685492492676,50.00196838378906L23.90685492492676,52.158428383789065L21.476594924926758,52.158428383789065L21.476594924926758,54.06871838378906L23.90685492492676,54.06871838378906L23.90685492492676,56.225178383789064L25.989774924926756,56.225178383789064L25.989774924926756,54.06871838378906L28.420034924926757,54.06871838378906L28.420034924926757,52.158428383789065Z" fill="url(#master_svg5_393_14453)" fill-opacity="1"/></g><g><path d="M33.758837185668945,106.26688022705078L31.328577185668944,106.26688022705078L31.328577185668944,104.11042022705078L29.245657185668946,104.11042022705078L29.245657185668946,106.26688022705078L26.814287185668945,106.26688022705078L26.814287185668945,108.17717022705078L29.245657185668946,108.17717022705078L29.245657185668946,110.33363022705078L31.328577185668944,110.33363022705078L31.328577185668944,108.17717022705078L33.758837185668945,108.17717022705078L33.758837185668945,106.26688022705078Z" fill="url(#master_svg6_393_14487)" fill-opacity="1"/></g><g><path d="M140.00001346679687,106.38504850341796L137.02599346679688,105.05571850341796L138.52743346679688,102.41675850341797L135.97843346679687,101.27452850341797L134.47700346679687,103.91348850341797L131.5040934667969,102.57430850341797L130.17355346679688,104.91786850341796L133.14757346679687,106.24718850341797L131.64613346679687,108.88614850341797L134.19513346679688,110.02837850341797L135.69656346679687,107.38942850341797L138.6694734667969,108.71874850341797L140.00001346679687,106.38504850341796Z" fill="url(#master_svg7_393_14477)" fill-opacity="1"/></g></g></g></svg>