<svg xmlns="http://www.w3.org/2000/svg" xmlns:xlink="http://www.w3.org/1999/xlink" fill="none" version="1.1" width="400" height="400" viewBox="0 0 400 400"><defs><clipPath id="master_svg0_378_12754"><rect x="0" y="0" width="400" height="400" rx="0"/></clipPath></defs><g clip-path="url(#master_svg0_378_12754)"><g><g><path d="M303.6663129882813,78.33335649414063L312.6663129882813,78.33335649414063L314.70031298828127,79.19995649414062L315.33331298828125,80.99995649414062L314.70031298828127,82.79995649414062L312.6663129882813,83.66665649414062L303.6663129882813,83.66665649414062L303.6663129882813,92.66665649414062L302.80031298828123,94.69995649414062L301.0003129882812,95.33335649414062L299.2003129882812,94.69995649414062L298.33331298828125,92.66665649414062L298.33331298828125,83.66665649414062L289.33331298828125,83.66665649414062L287.30031298828123,82.79995649414062L286.6663129882812,80.99995649414062L287.30031298828123,79.19995649414062L289.33331298828125,78.33335649414063L298.33331298828125,78.33335649414063L298.33331298828125,69.33331649414062L299.2003129882812,67.29999149414063L301.0003129882812,66.66665649414062L302.80031298828123,67.29999149414063L303.6663129882813,69.33331649414062L303.6663129882813,78.33335649414063ZM119.73331298828126,95.99995649414063L121.00001298828126,95.49995649414063L122.10001298828125,95.99995649414063L122.60001298828125,97.06665649414063L122.10001298828125,98.36665649414063L119.75001298828126,100.71665649414062L122.10001298828125,103.06665649414063L122.60001298828125,104.33325649414063L122.10001298828125,105.43325649414062L121.00001298828126,105.93325649414062L119.73331298828126,105.43325649414062L117.36661298828125,103.06665649414063L115.03331298828125,105.43325649414062L113.73331298828126,105.93325649414062L112.66671298828125,105.43325649414062L112.16661298828124,104.33325649414063L112.66671298828125,103.06665649414063L115.01671298828126,100.71665649414062L112.66671298828125,98.36665649414063L112.16661298828124,97.06665649414063L112.66671298828125,95.99995649414063L113.73331298828126,95.49995649414063L115.03331298828125,95.99995649414063L117.36661298828125,98.36665649414063L119.73331298828126,95.99995649414063ZM256.0003129882813,273.76165649414065L256.0003129882813,189.34865649414064L255.98531298828124,189.33365649414063L255.99131298828124,189.33365649414063L251.85931298828126,184.85765649414063L245.60431298828124,178.08165649414065L216.00231298828126,145.99995649414063L148.23831298828125,145.99995649414063L144.33831298828125,147.67155649414065L142.66661298828126,151.5718564941406L142.66661298828126,273.76165649414065L144.33831298828125,277.66165649414063L148.23831298828125,279.33365649414066L250.42831298828125,279.33365649414066L254.32831298828125,277.66165649414063L256.0003129882813,273.76165649414065ZM216.00031298828125,161.72685649414063L211.33131298828124,156.66665649414062L153.33331298828125,156.66665649414062L153.33331298828125,268.6666564941406L245.33331298828125,268.6666564941406L245.33331298828125,193.51765649414062L241.47231298828126,189.33365649414063L222.38631298828125,189.33365649414063L220.05331298828125,188.83665649414064L217.90831298828124,187.42565649414064L216.49631298828126,185.27965649414062L216.00031298828125,182.94665649414063L216.00031298828125,161.72685649414063ZM56.66661298828125,162.66665649414062L57.53331298828125,160.63335649414063L59.33331298828125,159.99995649414063L61.13331298828125,160.63335649414063L62.00001298828125,162.66665649414062L62.00001298828125,169.99965649414062L69.33331298828125,169.99965649414062L71.36661298828125,170.8666564941406L72.00001298828124,172.66665649414062L71.36661298828125,174.46665649414064L69.33331298828125,175.33365649414063L62.00001298828125,175.33365649414063L62.00001298828125,182.66665649414062L61.13331298828125,184.69965649414064L59.33331298828125,185.33365649414063L57.53331298828125,184.69965649414064L56.66661298828125,182.66665649414062L56.66661298828125,175.33365649414063L49.33331298828125,175.33365649414063L47.29998298828125,174.46665649414064L46.666642988281254,172.66665649414062L47.29998298828125,170.8666564941406L49.33331298828125,169.99965649414062L56.66661298828125,169.99965649414062L56.66661298828125,162.66665649414062ZM221.33331298828125,167.50665649414063L221.33331298828125,182.38565649414062L221.50331298828124,183.1866564941406L221.75831298828126,183.57465649414064L222.14631298828124,183.82965649414064L222.94731298828125,183.99965649414062L236.55131298828124,183.99965649414062L221.33331298828125,167.50665649414063ZM194.76631298828124,213.21365649414062L194.70031298828124,196.51365649414063L201.36631298828124,196.48665649414062L201.43331298828124,213.18665649414064L194.76631298828124,213.21365649414062ZM215.55531298828126,216.5866564941406L228.58831298828125,205.92065649414062L230.70031298828124,208.49965649414062L232.81131298828126,211.07965649414064L219.77731298828124,221.74565649414063L217.66631298828125,219.16665649414062L215.55531298828126,216.5866564941406ZM176.34731298828126,222.39265649414062L163.38031298828125,212.25965649414061L167.48531298828124,207.00665649414063L180.45231298828125,217.13965649414064L176.34731298828126,222.39265649414062ZM310.0003129882812,242.66665649414062L310.86631298828127,240.63365649414064L312.6663129882813,239.99965649414062L314.46631298828123,240.63365649414064L315.33331298828125,242.66665649414062L315.33331298828125,249.99965649414062L322.6663129882813,249.99965649414062L324.70031298828127,250.8666564941406L325.33331298828125,252.66665649414062L324.70031298828127,254.46665649414064L322.6663129882813,255.33365649414063L315.33331298828125,255.33365649414063L315.33331298828125,262.6666564941406L314.46631298828123,264.69965649414064L312.6663129882813,265.33365649414066L310.86631298828127,264.69965649414064L310.0003129882812,262.6666564941406L310.0003129882812,255.33365649414063L302.6663129882813,255.33365649414063L300.63331298828126,254.46665649414064L300.0003129882812,252.66665649414062L300.63331298828126,250.8666564941406L302.6663129882813,249.99965649414062L310.0003129882812,249.99965649414062L310.0003129882812,242.66665649414062ZM90.30001298828125,270.46665649414064L91.60001298828125,269.96665649414064L92.66671298828125,270.46665649414064L93.16671298828125,271.5666564941406L92.66671298828125,272.83365649414066L90.31671298828125,275.1836564941406L92.66671298828125,277.5336564941406L93.16671298828125,278.83365649414066L92.66671298828125,279.89965649414063L91.60001298828125,280.4336564941406L90.30001298828125,279.89965649414063L87.96671298828124,277.5336564941406L85.60001298828125,279.89965649414063L84.33331298828125,280.4336564941406L83.23331298828126,279.89965649414063L82.73331298828126,278.83365649414066L83.23331298828126,277.5336564941406L85.58331298828125,275.1836564941406L83.23331298828126,272.83365649414066L82.73331298828126,271.5666564941406L83.23331298828126,270.46665649414064L84.33331298828125,269.96665649414064L85.60001298828125,270.46665649414064L87.96671298828124,272.83365649414066L90.30001298828125,270.46665649414064ZM45.99997298828125,310.33365649414066L44.09997798828125,309.5666564941406L43.33331298828125,307.6666564941406L44.09997798828125,305.76665649414065L45.99997298828125,304.9996564941406L279.33331298828125,304.9996564941406L281.2333129882812,305.76665649414065L282.0003129882813,307.6666564941406L281.2333129882812,309.5666564941406L279.33331298828125,310.33365649414066L45.99997298828125,310.33365649414066ZM292.6663129882812,310.33365649414066L290.76631298828124,309.5666564941406L290.0003129882813,307.6666564941406L290.76631298828124,305.76665649414065L292.6663129882812,304.9996564941406L301.0003129882812,304.9996564941406L302.90031298828126,305.76665649414065L303.6663129882813,307.6666564941406L302.90031298828126,309.5666564941406L301.0003129882812,310.33365649414066L292.6663129882812,310.33365649414066ZM322.6663129882813,310.33365649414066L320.76631298828124,309.5666564941406L320.0003129882812,307.6666564941406L320.76631298828124,305.76665649414065L322.6663129882813,304.9996564941406L352.6663129882813,304.9996564941406L354.56631298828125,305.76665649414065L355.33331298828125,307.6666564941406L354.56631298828125,309.5666564941406L352.6663129882813,310.33365649414066L322.6663129882813,310.33365649414066ZM122.66661298828124,335.3336564941406L120.76661298828125,334.5666564941406L120.00001298828126,332.6666564941406L120.76661298828125,330.76665649414065L122.66661298828124,329.99965649414065L146.00031298828125,329.99965649414065L147.90031298828126,330.76665649414065L148.66631298828125,332.6666564941406L147.90031298828126,334.5666564941406L146.00031298828125,335.3336564941406L122.66661298828124,335.3336564941406ZM161.00031298828125,335.3336564941406L159.10031298828125,334.5666564941406L158.33331298828125,332.6666564941406L159.10031298828125,330.76665649414065L161.00031298828125,329.99965649414065L262.6663129882812,329.99965649414065L264.56631298828125,330.76665649414065L265.33331298828125,332.6666564941406L264.56631298828125,334.5666564941406L262.6663129882812,335.3336564941406L161.00031298828125,335.3336564941406Z" fill-rule="evenodd" fill="currentColor" fill-opacity="1"/></g></g></g></svg>
