<svg xmlns="http://www.w3.org/2000/svg" xmlns:xlink="http://www.w3.org/1999/xlink" fill="none" version="1.1" width="150" height="150" viewBox="0 0 150 150"><defs><clipPath id="master_svg0_393_15012"><rect x="0" y="0" width="150" height="150" rx="0"/></clipPath></defs><g clip-path="url(#master_svg0_393_15012)"><g><g><path d="M125.27022885742187,121.22889578125L50.380828857421875,121.22889578125Q50.32222835742188,121.22889578125,50.26390985742187,121.22314578125Q50.20559185742187,121.21740578125,50.14811785742187,121.20597578125Q50.09064285742188,121.19453578125,50.034565857421875,121.17752578125Q49.97848885742187,121.16051578125,49.924348857421876,121.13809578125Q49.87020885742187,121.11566578125,49.81852785742188,121.08804578125Q49.766846857421875,121.06041578125,49.718122857421875,121.02786578125Q49.66939785742188,120.99530578125,49.62409885742188,120.95812578125Q49.578800857421875,120.92095578125,49.53736385742187,120.87951578125Q49.49592685742188,120.83807578125,49.458750857421876,120.79278578125Q49.42157585742188,120.74748578125,49.389018857421874,120.69875878125Q49.35645885742188,120.65003378125,49.32883885742187,120.59835278125Q49.30121885742187,120.54667178125,49.27878885742187,120.49253178125Q49.25635885742187,120.43839178125,49.239348857421874,120.38231478125Q49.222338857421875,120.32623778125,49.21090885742188,120.26876378125Q49.19947885742187,120.21128878125,49.193728857421874,120.15297078125Q49.18798885742188,120.09465278125,49.18798885742188,120.03605178125Q49.18798885742188,119.97745178125,49.193728857421874,119.91913278125Q49.19947885742187,119.86081478125,49.21090885742188,119.80334048125Q49.222338857421875,119.74586598125,49.239348857421874,119.68978878125Q49.25635885742187,119.63371168125,49.27878885742187,119.57957178125Q49.30121885742187,119.52543178125,49.32883885742187,119.47375078125Q49.35645885742188,119.42206978125,49.389018857421874,119.37334578125Q49.42157585742188,119.32462078125,49.458750857421876,119.27932278125Q49.49592685742188,119.23402378125,49.53736385742187,119.19258678125Q49.578800857421875,119.15114978125,49.62409885742188,119.11397378125Q49.66939785742188,119.07679878125,49.718122857421875,119.04424178125Q49.766846857421875,119.01168478125,49.81852785742188,118.98406078125Q49.87020885742187,118.95643678125,49.924348857421876,118.93401178125Q49.97848885742187,118.91158578125,50.034565857421875,118.89457578125Q50.09064285742188,118.87756478125,50.14811785742187,118.86613178125Q50.20559185742187,118.85469978125,50.26390985742187,118.84895578125Q50.32222835742188,118.84321178125,50.380828857421875,118.84321178125L125.27022885742187,118.84321178125Q125.32882885742187,118.84321178125,125.38712885742187,118.84895578125Q125.44542885742187,118.85469978125,125.50292885742188,118.86613178125Q125.56032885742188,118.87756478125,125.61642885742188,118.89457578125Q125.67252885742188,118.91158578125,125.72662885742187,118.93401178125Q125.78082885742188,118.95643678125,125.83242885742187,118.98406078125Q125.88412885742187,119.01168478125,125.93282885742188,119.04424178125Q125.98162885742188,119.07679878125,126.02692885742188,119.11397378125Q126.07222885742188,119.15114978125,126.11362885742187,119.19258678125Q126.15512885742187,119.23402378125,126.19222885742188,119.27932278125Q126.22942885742188,119.32462078125,126.26192885742188,119.37334578125Q126.29452885742188,119.42206978125,126.32212885742187,119.47375078125Q126.34982885742187,119.52543178125,126.37222885742187,119.57957178125Q126.39462885742188,119.63371168125,126.41162885742187,119.68978878125Q126.42862885742187,119.74586598125,126.44012885742187,119.80334048125Q126.45152885742188,119.86081478125,126.45722885742188,119.91913278125Q126.46302885742188,119.97745178125,126.46302885742188,120.03605178125Q126.46302885742188,120.09465278125,126.45722885742188,120.15297078125Q126.45152885742188,120.21128878125,126.44012885742187,120.26876378125Q126.42862885742187,120.32623778125,126.41162885742187,120.38231478125Q126.39462885742188,120.43839178125,126.37222885742187,120.49253178125Q126.34982885742187,120.54667178125,126.32212885742187,120.59835278125Q126.29452885742188,120.65003378125,126.26202885742188,120.69875778125Q126.22942885742188,120.74748578125,126.19222885742188,120.79278578125Q126.15512885742187,120.83807578125,126.11362885742187,120.87951578125Q126.07222885742188,120.92095578125,126.02692885742188,120.95812578125Q125.98162885742188,120.99530578125,125.93282885742188,121.02786578125Q125.88412885742187,121.06041578125,125.83242885742187,121.08804578125Q125.78082885742188,121.11566578125,125.72662885742187,121.13809578125Q125.67252885742188,121.16051578125,125.61642885742188,121.17752578125Q125.56032885742188,121.19453578125,125.50292885742188,121.20597578125Q125.44542885742187,121.21740578125,125.38712885742187,121.22314578125Q125.32882885742187,121.22889578125,125.27022885742187,121.22889578125Z" fill-rule="evenodd" fill="#CDD6E1" fill-opacity="1"/></g><g><path d="M139.99999557617187,121.22889578125L132.58346557617188,121.22889578125Q132.52486507617186,121.22889578125,132.46654657617188,121.22314578125Q132.40822857617187,121.21740578125,132.35075457617188,121.20597578125Q132.29327957617187,121.19453578125,132.23720257617188,121.17752578125Q132.18112557617187,121.16051578125,132.12698557617188,121.13809578125Q132.0728455761719,121.11566578125,132.02116457617188,121.08804578125Q131.96948357617188,121.06041578125,131.92075957617186,121.02786578125Q131.87203457617187,120.99530578125,131.82673557617187,120.95812578125Q131.78143757617187,120.92095578125,131.74000057617187,120.87951578125Q131.69856357617186,120.83807578125,131.66138757617188,120.79278578125Q131.62421257617189,120.74748578125,131.5916555761719,120.69875878125Q131.55909557617187,120.65003378125,131.53147557617189,120.59835278125Q131.50385557617187,120.54667178125,131.4814255761719,120.49253178125Q131.45899557617187,120.43839178125,131.44198557617187,120.38231478125Q131.42497557617187,120.32623778125,131.41354557617188,120.26876378125Q131.40211557617187,120.21128878125,131.3963655761719,120.15297078125Q131.39062557617189,120.09465278125,131.39062557617189,120.03605178125Q131.39062557617189,119.97745178125,131.3963655761719,119.91913278125Q131.40211557617187,119.86081478125,131.41354557617188,119.80334048125Q131.42497557617187,119.74586598125,131.44198557617187,119.68978878125Q131.45899557617187,119.63371168125,131.4814255761719,119.57957178125Q131.50385557617187,119.52543178125,131.53147557617189,119.47375078125Q131.55909557617187,119.42206978125,131.5916555761719,119.37334578125Q131.62421257617189,119.32462078125,131.66138757617188,119.27932278125Q131.69856357617186,119.23402378125,131.74000057617187,119.19258678125Q131.78143757617187,119.15114978125,131.82673557617187,119.11397378125Q131.87203457617187,119.07679878125,131.92075957617186,119.04424178125Q131.96948357617188,119.01168478125,132.02116457617188,118.98406078125Q132.0728455761719,118.95643678125,132.12698557617188,118.93401178125Q132.18112557617187,118.91158578125,132.23720257617188,118.89457578125Q132.29327957617187,118.87756478125,132.35075457617188,118.86613178125Q132.40822857617187,118.85469978125,132.46654657617188,118.84895578125Q132.52486507617186,118.84321178125,132.58346557617188,118.84321178125L139.99999557617187,118.84321178125Q140.05859557617188,118.84321178125,140.11691557617186,118.84895578125Q140.17523557617187,118.85469978125,140.23270557617187,118.86613178125Q140.29018557617187,118.87756478125,140.34626557617187,118.89457578125Q140.40233557617188,118.91158578125,140.45647557617187,118.93401178125Q140.5106155761719,118.95643678125,140.56229557617186,118.98406078125Q140.61397557617187,119.01168478125,140.66270557617187,119.04424178125Q140.71142557617188,119.07679878125,140.75672557617187,119.11397378125Q140.80202557617187,119.15114978125,140.84346557617187,119.19258678125Q140.8849055761719,119.23402378125,140.92207557617186,119.27932278125Q140.95925557617187,119.32462078125,140.99180557617188,119.37334578125Q141.02436557617187,119.42206978125,141.0519855761719,119.47375078125Q141.07961557617188,119.52543178125,141.1020355761719,119.57957178125Q141.12446557617187,119.63371168125,141.14147557617187,119.68978878125Q141.15848557617187,119.74586598125,141.1699155761719,119.80334048125Q141.18135557617188,119.86081478125,141.18709557617188,119.91913278125Q141.1928355761719,119.97745178125,141.1928355761719,120.03605178125Q141.1928355761719,120.09465278125,141.18709557617188,120.15297078125Q141.18135557617188,120.21128878125,141.1699155761719,120.26876378125Q141.15848557617187,120.32623778125,141.14147557617187,120.38231478125Q141.12446557617187,120.43839178125,141.1020355761719,120.49253178125Q141.07961557617188,120.54667178125,141.0519855761719,120.59835278125Q141.02436557617187,120.65003378125,140.99180557617188,120.69875778125Q140.95925557617187,120.74748578125,140.92207557617186,120.79278578125Q140.8849055761719,120.83807578125,140.84346557617187,120.87951578125Q140.80202557617187,120.92095578125,140.75672557617187,120.95812578125Q140.71142557617188,120.99530578125,140.66270557617187,121.02786578125Q140.61397557617187,121.06041578125,140.56229557617186,121.08804578125Q140.5106155761719,121.11566578125,140.45647557617187,121.13809578125Q140.40233557617188,121.16051578125,140.34626557617187,121.17752578125Q140.29018557617187,121.19453578125,140.23270557617187,121.20597578125Q140.17523557617187,121.21740578125,140.11691557617186,121.22314578125Q140.05859557617188,121.22889578125,139.99999557617187,121.22889578125Z" fill-rule="evenodd" fill="#CDD6E1" fill-opacity="1"/></g><g><path d="M52.02189453369141,114.27718781005859C54.30296453369141,114.27718781005859,56.15244453369141,112.40733781005859,56.15244453369141,110.0960078100586C56.15244453369141,107.7846678100586,54.30296453369141,105.9148178100586,52.02189453369141,105.9148178100586C49.740814533691406,105.9148178100586,47.891334533691406,107.7846678100586,47.891334533691406,110.0960078100586C47.891334533691406,112.40733781005859,49.740814533691406,114.27718781005859,52.02189453369141,114.27718781005859Z" fill="#B8BFCD" fill-opacity="1"/></g><g><path d="M92.462364296875,96.87721743164063C92.51366429687499,103.48660743164062,93.074794296875,111.84896743164063,93.278724296875,112.73196743164063C93.227424296875,113.66036743164062,91.289434296875,116.60146743164063,89.708654296875,114.58886743164062C88.127874296875,112.57616743164063,84.915004296875,108.23916743164062,86.393820296875,100.07803743164062C87.872634296875,91.97536743164062,92.462364296875,96.87721743164063,92.462364296875,96.87721743164063Z" fill="#B8BFCD" fill-opacity="1"/></g><g><path d="M51.46076309423828,114.22521770019532C51.46076309423828,114.27721770019531,51.46076309423828,114.38111770019532,51.51206609423828,114.43301770019531C51.51206609423828,114.48491770019531,51.56272809423828,114.5888177001953,51.56272809423828,114.64081770019531C51.61403109423828,114.69271770019532,51.61403109423828,114.79661770019531,51.66469309423828,114.84851770019532C51.71599709423828,114.90051770019531,51.76665909423828,114.95241770019531,51.81796209423828,115.05631770019531C52.073196094238284,115.41341770019531,52.53172409423828,115.72501770019531,53.04218409423828,116.03661770019531C53.14415409423828,116.08861770019531,53.296784094238284,116.14051770019532,53.39874409423828,116.18601770019532C53.45004409423828,116.23791770019531,53.55201409423828,116.23791770019531,53.60267409423828,116.2899177001953C53.65397409423828,116.34181770019532,53.75594409423828,116.34181770019532,53.80660409423828,116.39371770019531L54.01053409423828,116.4457177001953C54.26577409423828,116.54961770019531,54.57166409423828,116.65341770019532,54.87756409423828,116.70541770019531C55.03083409423828,116.75731770019532,55.13279409423828,116.75731770019532,55.286064094238284,116.80931770019532C55.38803409423828,116.80931770019532,55.489994094238284,116.86121770019531,55.64262409423828,116.86121770019531C55.74458409423828,116.86121770019531,55.84655409423828,116.91311770019531,55.94852409423828,116.91311770019531C56.76488409423828,117.01701770019531,57.52994409423828,116.96511770019532,58.19239409423828,116.70541770019531C60.48757409423828,115.82891770019532,61.40528409423828,114.01751770019531,61.40528409423828,114.01751770019531C61.40528409423828,114.01751770019531,62.017684094238284,114.17331770019531,62.98608409423828,114.27721770019531C64.82208409423828,114.53691770019532,67.88228409423829,114.90051770019531,70.53408409423828,114.64081770019531C71.40108409423829,114.53691770019532,72.31878409423828,114.32911770019531,73.28778409423828,114.06941770019532C73.59368409423828,113.97201770019531,73.89958409423828,113.86811770019531,74.25678409423828,113.7643177001953C74.86848409423828,113.55651770019531,75.42968409423828,113.2968177001953,76.04148409423829,113.03711770019531C77.67358409423828,112.3164177001953,79.20368409423828,111.3361177001953,80.47858409423829,110.25181770019532C80.63118409423828,110.14791770019531,80.78448409423828,109.99211770019531,80.93708409423829,109.88821770019531C81.65148409423828,109.21951770019531,82.26328409423829,108.4988177001953,82.72238409423828,107.77171770019531C83.64008409423829,106.17451770019531,84.86438409423829,104.83051770019532,86.18988409423828,103.53851770019531C88.17918409423828,101.62971770019531,90.52498409423828,99.97411770019531,92.66688409423828,98.22121770019531C93.32938409423828,97.70821770019532,93.99248409423828,97.13691770019531,94.60428409423828,96.62401770019531C96.59358409423828,94.86451770019531,98.37828409423828,92.79991770019531,99.60248409423828,90.42361770019531C100.92808409423827,87.84611770019531,100.92808409423827,85.41791770019532,100.72408409423828,82.58071770019531C100.72408409423828,82.42481770019532,100.41818409423828,80.56151770019531,100.52018409423829,80.50961770019532C101.43788409423829,79.89281770019531,102.10098409423827,79.01631770019532,102.45818409423828,77.93201770019532C103.27388409423828,75.76351770019531,102.96798409423829,72.97171770019531,101.99898409423828,71.16682770019531C101.89708409423828,70.9590677001953,101.79508409423829,70.75130770019531,101.69308409423829,70.6019777001953C100.67348409423829,68.79056770019531,99.44918409423829,66.67399770019532,98.07238409423829,65.2845977001953L95.57328409423829,62.75251770019531L73.84888409423829,62.75251770019531C73.84888409423829,62.75251770019531,73.59368409423828,64.24579770019531,73.23648409423828,66.10915770019531C73.18578409423829,66.26497770019532,73.18578409423829,66.4142977001953,73.13448409423827,66.57011770019531C73.08378409423828,66.88176770019531,73.03248409423828,67.19340770019531,72.93058409423828,67.4985577001953C72.87988409423828,67.65437770019531,72.87988409423828,67.81019770019532,72.82858409423828,67.96601770019531C72.82858409423828,68.01795770019531,72.82858409423828,68.01795770019531,72.77788409423829,68.06989770019531C72.72658409423828,68.43347770019531,72.62468409423828,68.73862770019531,72.57398409423828,69.10220770019531C72.37008409423828,70.13451770019532,72.11478409423827,71.06294770019531,71.80888409423828,71.83555770019531C71.80888409423828,71.88749770019531,71.75758409423828,71.99137770019532,71.75758409423828,72.04331770019532C71.60498409423829,72.45883770019532,71.45178409423828,72.82241770019532,71.29908409423828,73.07561770019531C70.07488409423829,75.08831770019532,63.853084094238284,80.87311770019531,59.51858409423828,84.12591770019532C55.18410409423828,87.37861770019532,53.19481409423828,92.9038177001953,52.073196094238284,101.83751770019532C50.798309094238284,110.71931770019532,51.25683219423828,112.52421770019532,51.46076309423828,114.22521770019532Z" fill="#EAEEF9" fill-opacity="1"/></g><g><path d="M90.62697999023437,111.80353843310547C93.53330999023437,111.49189743310546,93.48264999023438,111.80353843310547,95.11473999023437,111.80353843310547C96.74617999023437,111.80353843310547,97.15404999023437,112.62808943310547,97.76647999023437,113.40070143310547C98.12303999023437,113.92010143310547,98.63353999023437,115.41338143310547,98.93943999023438,116.49763143310547C99.14333999023438,117.12091143310546,98.68413999023437,117.68576143310547,98.07236999023438,117.73770143310547C96.23635999023438,117.73770143310547,92.92151999023437,117.78964143310547,92.36038999023438,117.73770143310547C91.54466999023437,117.63382143310547,89.81061999023437,117.42606143310547,89.04555899023437,116.14054143310547C88.79096599023437,115.67308143310547,88.63769699023437,115.05629143310547,88.48506999023438,114.43301143310546C88.28113899023438,113.24488143310546,89.04555899023437,112.05674743310547,90.26977999023437,111.90092643310547L90.62697999023437,111.80353843310547Z" fill="#EAEEF9" fill-opacity="1"/></g><g style="opacity:0.30000001192092896;"><path d="M51.460766822265626,114.22520465698241C51.61403482226562,115.93280465698243,55.79589782226562,117.52990465698242,58.09043782226563,116.65340465698242C60.43627782226562,115.77700465698243,61.303267822265624,113.97200465698242,61.303267822265624,113.97200465698242C61.303267822265624,113.97200465698242,66.35216782226563,115.00430465698241,70.43206782226562,114.64080465698243C73.49166782226563,114.32910465698242,77.62226782226563,112.52420465698242,80.32526782226563,110.19990465698243L79.96806782226562,102.35040465698242C79.96806782226562,102.35040465698242,79.66216782226563,95.48780465698242,79.35626782226562,92.48830465698242C79.10166782226563,89.49520465698242,81.44756782226563,89.54720465698242,81.34556782226562,85.67760465698242C81.19226782226562,81.80160465698242,82.72246782226563,74.93900465698242,84.71106782226562,68.63474465698242L77.77546782226563,63.36930465698242L73.03256782226563,66.10915465698243C72.57396782226563,68.68668465698242,71.80896782226563,71.93943465698243,71.14586782226563,73.12756465698243C69.92166782226562,75.14020465698242,63.70046782226562,80.92510465698243,59.36532782226563,84.17780465698242C55.030837822265624,87.43060465698242,53.042187822265625,92.95570465698242,51.91993082226563,101.88940465698242C50.79831282226562,110.71930465698242,51.25683582226562,112.52420465698242,51.460766822265626,114.22520465698241Z" fill="#BFC8D6" fill-opacity="1"/></g><g style="opacity:0.4000000059604645;"><path d="M51.46076059350586,114.2252557800293C51.46076059350586,114.27715578002929,51.46076059350586,114.3810557800293,51.51206359350586,114.43305578002929C51.51206359350586,114.4849557800293,51.56272559350586,114.58885578002929,51.56272559350586,114.6407557800293C51.61402959350586,114.6927557800293,51.61402959350586,114.7965557800293,51.66469159350586,114.8485557800293C51.71599459350586,114.90045578002929,51.76665659350586,114.9524557800293,51.81795959350586,115.05625578002929C52.07319359350586,115.41335578002929,52.53171959350586,115.7250557800293,53.04218959350586,116.03665578002929C53.14414959350586,116.0885557800293,53.29677959350586,116.1340557800293,53.39873959350586,116.1859557800293C53.45004959350586,116.2379557800293,53.55200959350586,116.2379557800293,53.60266959350586,116.2898557800293C53.65397959350586,116.3418557800293,53.75593959350586,116.3418557800293,53.80659959350586,116.3937557800293L54.01052959350586,116.4456557800293C54.26576959350586,116.5495557800293,54.571659593505856,116.6534557800293,54.87755959350586,116.7053557800293C55.03082959350586,116.7573557800293,55.13278959350586,116.7573557800293,55.28605959350586,116.8092557800293C55.99981959350586,116.3418557800293,56.40767959350586,116.03665578002929,56.40767959350586,116.03665578002929C56.40767959350586,116.03665578002929,56.40767959350586,116.03665578002929,56.101789593505856,114.1733557800293C55.99981959350586,113.60845578002929,55.897859593505856,112.8358557800293,55.74458959350586,111.8035557800293C55.08148959350586,107.5119557800293,55.54065959350586,99.0457557800293,61.20128959350586,99.30545578002929C60.58953959350586,94.9684557800293,62.93538959350586,90.1704557800293,64.97528959350586,87.1189557800293C67.06598959350586,84.1259557800293,68.59608959350587,85.78145578002929,70.38078959350585,87.84615578002929C70.58468959350586,86.9631557800293,69.66698959350586,83.4571557800293,68.54478959350587,80.36025578002929C70.83998959350586,83.1455557800293,72.87988959350585,84.1259557800293,78.33658959350586,84.64535578002929C75.88878959350586,82.5806557800293,75.58228959350586,81.4964557800293,73.59368959350586,76.9516657800293C76.09278959350586,78.1397557800293,81.19228959350586,79.5291557800293,84.25188959350587,79.9447557800293C91.64658959350587,80.9250557800293,98.02108959350585,80.5615557800293,102.30488959350586,77.9320357800293C103.12128959350585,75.7635357800293,102.81538959350587,72.9717557800293,101.84638959350586,71.1668257800293C101.74438959350586,70.95906578002929,101.64178959350586,70.7513057800293,101.53978959350586,70.60197578002929C97.61318959350587,70.2383957800293,90.93288959350586,69.6670557800293,84.65978959350585,69.1022057800293C80.07008959350586,68.6866857800293,75.68488959350586,68.2776567800293,72.72658959350586,68.0179557800293C72.72658959350586,68.0698959800293,72.72658959350586,68.0698959800293,72.67598959350586,68.1218357800293C72.62468959350586,68.4854177800293,72.52268959350586,68.7905657800293,72.47198959350587,69.1541457800293C72.26808959350586,70.18645578002929,72.01288959350586,71.1148857800293,71.70698959350585,71.8874957800293C71.70698959350585,71.9394357800293,71.65568959350585,72.0433157800293,71.65568959350585,72.0952657800293C71.50298959350586,72.5107857800293,71.34978959350586,72.8743657800293,71.19718959350585,73.1275757800293C69.97288959350585,75.14025578002929,63.75108959350586,80.9250557800293,59.41661959350586,84.17785578002929C55.08148959350586,87.4305557800293,53.09284959350586,92.95575578002929,51.971228593505856,101.8894557800293C50.798306593505856,110.7192557800293,51.25682999350586,112.5242557800293,51.46076059350586,114.2252557800293Z" fill="#BFC8D6" fill-opacity="1"/></g><g><path d="M80.78443682861328,117.27019127197266C80.78443682861328,117.27019127197266,80.37653682861328,111.02439127197266,80.32523682861328,110.19989127197266C80.27461682861328,109.63499127197265,76.95978682861328,112.31639127197266,73.89954682861328,106.58354127197265C70.83994382861329,100.85713127197266,70.38077882861329,99.82482127197265,70.48274382861328,98.37699127197266C69.56505582861328,105.65511127197266,72.42072682861328,110.56349127197265,72.98185682861327,113.19289127197266C73.54298682861328,115.82889127197265,74.05281682861329,115.72499127197266,74.05281682861329,115.72499127197266L79.20366682861328,116.75729127197266L80.78443682861328,117.27019127197266Z" fill="#B8BFCD" fill-opacity="1"/></g><g><path d="M75.68489679199219,113.03711633935546C78.59122679199218,112.68002733935546,78.54056679199219,113.03711633935546,80.17201679199219,113.03711633935546C81.80409679199218,113.03711633935546,82.2119567919922,113.92010033935547,82.82439679199219,114.74465033935547C83.18094679199218,115.25756033935546,83.69143679199219,116.91315033935547,83.99733679199218,118.10128033935547C84.20123679199219,118.77002033935547,83.74203679199219,119.38680033935547,83.13028679199219,119.38680033935547C81.29427679199219,119.38680033935547,77.2143767919922,119.34136033935548,76.65324679199219,119.28942033935547C75.83752679199219,119.18554033935547,74.86853679199218,119.02972033935546,74.15477679199219,117.63382033935547C73.89954279199219,117.12091033935548,73.7469157919922,116.44569033935547,73.59364669199219,115.77696033935547C73.38971579199219,114.48495033935546,74.15477679199219,113.24487733935547,75.37835679199219,113.03711633935546L75.68489679199219,113.03711633935546Z" fill="#EAEEF9" fill-opacity="1"/></g><g><path d="M62.42555455932617,113.92010467333985C63.75110455932617,114.74465267333984,64.51616455932617,116.70539267333984,64.92405455932617,118.10129267333984C65.12795455932617,118.77002267333984,64.66943455932618,119.38681267333985,64.05700455932617,119.38681267333985C62.22162455932617,119.38681267333985,58.141734559326174,119.34136267333984,57.58060455932617,119.28942267333984C54.36773355932617,118.87390267333984,54.010534559326175,115.30950267333985,56.45834455932617,113.92010467333985C57.988464559326175,112.98518067333984,60.89543455932617,112.93324067333984,62.42555455932617,113.92010467333985Z" fill="#EAEEF9" fill-opacity="1"/></g><g><path d="M97.74018092651367,73.7638530029297C97.28548092651367,74.19235300292969,96.77378092651367,74.58185300292969,96.25428092651367,74.91945300292969C95.54758092651367,75.38695300292969,94.78318092651367,75.80895300292968,94.01108092651367,76.17905300292969C91.64538092651367,77.30225300292969,89.12828092651367,78.08785300292969,86.46688092651367,78.21125300292968C84.26728092651368,78.32155300292969,81.93048092651367,78.18525300292968,79.77441092651367,77.51005300292968C79.02410092651367,77.30225300292969,78.25968092651367,76.99715300292968,77.59659092651367,76.67245300292969C73.77449092651368,74.77665300292969,71.59666592651367,73.21195300292969,71.29397692651368,68.87495300292969C70.99192892651367,64.53795300292968,71.18688132651367,61.17485300292969,71.18688132651367,61.17485300292969C71.18688132651367,60.80475300292969,71.57614492651368,60.27885300292969,71.68452292651367,59.95425300292969C71.88652992651367,59.558193002929684,72.03082092651367,59.12319300292969,72.23283092651367,58.72715300292969C72.58618092651368,57.94804300292969,72.98314092651367,57.10401300292969,73.39420092651368,56.370363002929686C74.30291092651368,54.77969300292969,75.45018092651367,53.40977300292969,76.90720092651367,52.41641300292969C79.25817092651367,50.825743002929684,82.10738092651367,50.20895600292969,84.89828092651368,49.91030000292969C86.92478092651368,49.67007650292969,89.02378092651367,49.572689002929685,91.05728092651367,50.11156800292969C92.82408092651367,50.585522002929686,94.33878092651366,51.46201300292969,95.69448092651368,52.67611300292969C97.16558092651367,53.97462300292969,98.31928092651367,55.58476300292969,99.61018092651366,57.06506300292969C99.61018092651366,57.06506300292969,100.72728092651367,60.23995300292969,101.63608092651367,64.49255300292968C102.54408092651367,68.73865300292968,100.87798092651367,70.80975300292968,97.74018092651367,73.7638530029297Z" fill="#EAEEF9" fill-opacity="1"/></g><g><path d="M80.7709769091797,67.03757866577149C80.23677690917968,67.63489866577149,79.73913690917969,69.58263866577148,76.80394690917969,68.86193866577149C72.63555590917969,67.79720866577148,72.30464990917969,62.52527866577148,74.24455690917969,60.571028665771486C77.7139369091797,57.04558866577148,81.89708690917969,57.850660665771485,83.05076690917969,61.648788665771484C84.23970690917969,65.70011866577148,81.84577690917969,65.88840866577148,80.7709769091797,67.03757866577149Z" fill="#BFC8D6" fill-opacity="1"/></g><g><path d="M72.62273266967773,54.552456975830076C73.74114266967773,52.98126597583008,75.39244266967773,53.37081797583008,74.82236266967773,55.16924397583008C73.89185266967773,58.07140397583008,72.03082266967773,59.486773975830076,71.88525266967774,70.14749397583007C71.84164266967774,72.03029397583008,65.48131366967773,68.20619397583008,65.21517784967773,61.564383975830076C65.14335326967773,60.32431397583008,66.62153266967773,59.850353975830075,66.62153266967773,59.850353975830075C67.50907266967774,59.56468397583008,70.86303266967774,57.04558397583008,72.62273266967773,54.552456975830076Z" fill="#989FB0" fill-opacity="1"/></g><g><path d="M95.74253835449218,72.01734101196288C95.9227383544922,73.29637101196289,95.74253835449218,74.5754010119629,95.28083835449219,75.6855810119629C94.66773835449219,76.08818101196289,93.99693835449219,76.44528101196289,93.32613835449219,76.8023810119629C91.24903835449219,77.77618101196289,89.02760835449219,78.46438101196289,86.77730835449219,78.58128101196289C84.88742835449219,78.69818101196289,82.80322835449219,78.5293810119629,80.92103835449218,77.96448101196289C80.05593935449218,76.94518101196289,79.52943935449218,75.7699810119629,79.33512845449219,74.38712101196289C78.74385835449219,70.19944101196289,81.95351835449219,66.29093901196289,86.49770835449219,65.63519371196288C90.99063835449219,64.9859410119629,95.15193835449219,67.82967101196289,95.74253835449218,72.01734101196288Z" fill="#BFC8D6" fill-opacity="1"/></g><g><path d="M78.42000126220704,66.80385091186524C80.06491126220703,66.56363091186523,81.20833126220703,65.02490091186523,80.97362126220703,63.35632091186523C80.73827126220704,61.694232911865235,79.21456126220703,60.53207091186523,77.56965126220703,60.77229481186524C75.92473626220703,61.01251791186523,74.78131426220703,62.55125091186523,75.01602656220703,64.21982091186524C75.25073926220703,65.88191091186523,76.77509126220703,67.03758091186523,78.42000126220704,66.80385091186524Z" fill="#FFFFFF" fill-opacity="1"/></g><g><path d="M80.71390076171875,63.70692055175781C80.89411076171875,64.9859405517578,79.98475076171874,66.21303055175781,78.72269076171875,66.39482055175782C77.46063076171875,66.57661055175781,76.24923376171876,65.65467055175782,76.06903076171875,64.37565055175781C76.29989576171874,64.55094055175782,76.57372676171875,64.66781055175781,76.87641676171874,64.62885055175781C77.43177076171875,64.54445055175782,77.87234076171875,64.01206055175781,77.78577076171875,63.401770551757814C77.70625076171875,62.836920551757814,77.18680076171874,62.44087355175781,76.62438876171875,62.47333655175781C76.97774076171875,62.057814551757815,77.50424076171875,61.772143551757814,78.05960076171876,61.69423345175781C79.37232076171875,61.499457551757814,80.52600076171875,62.375948551757816,80.71390076171875,63.70692055175781Z" fill="#989FB0" fill-opacity="1"/></g><g><path d="M94.97878898681641,64.40810947021484C96.6243489868164,64.17437947021484,97.7671289868164,62.629159470214844,97.5324089868164,60.967069470214845C97.2976989868164,59.298490470214844,95.7739889868164,58.14282147021484,94.1284389868164,58.376552370214846C92.4835269868164,58.61677547021485,91.3407459868164,60.161999470214845,91.5754581868164,61.82407947021484C91.8101709868164,63.492659470214846,93.3338789868164,64.64832947021485,94.97878898681641,64.40810947021484Z" fill="#FFFFFF" fill-opacity="1"/></g><g><path d="M91.92111018017579,62.0902751953125C92.10131318017578,63.3628151953125,93.31335718017579,64.2847451953125,94.57541718017578,64.1029551953125C95.83747718017578,63.9211651953125,96.74618718017578,62.694085195312496,96.56598718017578,61.4150551953125C96.39283718017577,61.6487851953125,96.16196718017578,61.8370651953125,95.85927718017578,61.8825151953125C95.30391718017579,61.9669151953125,94.73445718017578,61.5773651953125,94.64787718017578,60.9605751953125C94.56835718017578,60.4022151953125,94.95762718017578,59.8763251953125,95.50592718017577,59.7464751953125C95.05189718017579,59.4478186953125,94.46767718017578,59.3179681953125,93.91231718017578,59.4023710953125C92.65025818017578,59.5841621953125,91.73385318017579,60.7593051953125,91.92111018017579,62.0902751953125Z" fill="#989FB0" fill-opacity="1"/></g><g><path d="M86.56952968261719,66.14810379970703C86.16551968261719,66.20653619970703,85.76919968261718,66.31690919970703,85.37928968261718,66.47273019970703C84.89640168261718,66.69996819970703,84.17494918261718,67.06354719970703,84.26857767261718,67.73227719970703C84.38400968261719,68.55033719970703,86.41048968261718,69.03727719970703,86.91518968261718,68.96585719970703C87.42051968261718,68.89443719970703,89.23793968261718,67.90108719970704,89.11545968261719,67.03108719970703C89.0000196826172,66.21302919970704,88.20674968261719,66.06370100970703,87.53595968261719,66.05720848970704C87.22556968261719,66.05071595970703,86.86516968261719,66.05071595970703,86.56952968261719,66.14810379970703Z" fill="#989FB0" fill-opacity="1"/></g><g><path d="M87.09539343261719,68.78407355981446L86.90813643261718,68.55034255981445L86.79270443261719,68.82952155981445C86.79270443261719,68.82952155981445,86.89338643261719,70.63444255981446,86.56889343261719,71.25772255981445C86.87158243261719,71.58235255981445,87.12425143261719,71.54339255981445,87.21788043261719,71.47847255981445C87.37692043261718,71.50444255981445,87.62894343261719,71.47198255981445,87.78029343261719,71.08242255981445C87.40577843261718,70.61496255981446,87.09539343261719,68.78407355981446,87.09539343261719,68.78407355981446Z" fill="#989FB0" fill-opacity="1"/></g><g><path d="M76.7763799243164,57.33774796557617C76.09853992431641,57.64938896557617,75.5213699243164,57.941551965576174,75.0743899243164,58.42199596557617C74.6274129243164,58.90244596557617,74.30997392431641,59.571175965576174,74.20159592431641,60.26587596557617C74.2086499243164,60.31781596557617,74.1579879243164,60.32430596557617,74.1079669243164,60.330805965576175C74.05730492431641,60.343785965576174,74.05025072431641,60.29184596557617,74.05025072431641,60.29184596557617C73.99958872431641,59.93475596557617,74.0932172243164,59.49975596557617,74.20159592431641,59.175135965576175C74.30291992431641,58.792075965576174,74.5119809243164,58.447965965576174,74.77875792431641,58.14931296557617C75.04552992431641,57.85065696557617,75.32000992431641,57.60394096557617,75.6515599243164,57.396179965576174C75.9901599243164,57.24685226557617,76.38711992431641,57.13647936557617,76.7552199243164,57.188419465576175C76.8129299243164,57.22737466557617,76.87064992431641,57.272822365576175,76.7763799243164,57.33774796557617C76.82703992431641,57.33125496557617,76.82703992431641,57.33125496557617,76.7763799243164,57.33774796557617Z" fill="#989FB0" fill-opacity="1"/></g><g><path d="M93.89116191044921,54.86410045947266C94.62672321044921,54.967980459472656,95.26159821044922,55.08484645947266,95.82401821044922,55.42245745947265C96.38642821044922,55.76007345947266,96.87701821044922,56.311933459472655,97.17264821044922,56.94820345947266C97.17970821044922,57.00014345947265,97.23036821044921,56.993653459472654,97.28038821044922,56.98715345947266C97.33104821044923,56.98066345947266,97.32399821044922,56.92872345947266,97.32399821044922,56.92872345947266C97.27332821044922,56.57163345947266,97.06426821044921,56.18208345947266,96.86931821044922,55.896413459472654C96.66794821044923,55.55880045947266,96.37231821044922,55.292607459472656,96.03307821044922,55.07835345947266C95.69382821044923,54.86410045947266,95.36228821044922,54.708280459472654,94.98712821044921,54.604399559472654C94.61966921044922,54.55245935947266,94.20860121044922,54.55895195947266,93.86935801044922,54.714772459472655C93.82639141044922,54.773205459472656,93.83344565044922,54.82514545947266,93.89116191044921,54.86410045947266C93.89116191044921,54.86410045947266,93.84049986044921,54.87708545947265,93.89116191044921,54.86410045947266Z" fill="#989FB0" fill-opacity="1"/></g><g><path d="M96.78402853515625,50.54007607177734C95.27635253515625,49.345452071777345,93.79817553515625,50.189480071777346,94.84348053515625,51.754176071777344C96.53840853515625,54.273276071777346,98.71623853515625,55.11081607177734,101.80148853515625,65.30403607177735C102.36389853515625,67.09603607177735,107.41274853515625,61.62283607177734,105.83454853515624,55.175736071777344C105.56074853515625,53.96163607177734,104.01009853515625,53.92917607177734,104.01009853515625,53.92917607177734C103.07958853515625,53.90320607177734,99.16321853515625,52.43589607177734,96.78402853515625,50.54007607177734Z" fill="#989FB0" fill-opacity="1"/></g><g><path d="M91.0759,76.74389821289063L91.0759,83.76231821289062Q91.0759,83.84041821289063,91.0835,83.91821821289062Q91.0912,83.99601821289062,91.1064,84.07261821289063Q91.1217,84.14921821289063,91.1443,84.22401821289063Q91.167,84.29881821289062,91.1969,84.37091821289063Q91.2268,84.44311821289062,91.2636,84.51201821289062Q91.3005,84.58091821289062,91.3439,84.64591821289062Q91.3873,84.71091821289062,91.4369,84.77131821289062Q91.4864,84.83171821289062,91.5417,84.88691821289062Q91.5969,84.94221821289062,91.6573,84.99171821289062Q91.7177,85.04131821289063,91.7827,85.08471821289062Q91.8477,85.12811821289063,91.9166,85.16501821289063Q91.9855,85.20181821289063,92.0576,85.23171821289063Q92.1298,85.26161821289062,92.2046,85.28431821289062Q92.2794,85.30691821289062,92.356,85.32221821289062Q92.4326,85.33741821289063,92.5104,85.34511821289063Q92.5882,85.35281821289063,92.6663,85.35281821289063Q92.7444,85.35281821289063,92.8222,85.34511821289063Q92.8999,85.33741821289063,92.9766,85.32221821289062Q93.0532,85.30691821289062,93.128,85.28431821289062Q93.2027,85.26161821289062,93.2749,85.23171821289063Q93.3471,85.20181821289063,93.416,85.16501821289063Q93.4849,85.12811821289063,93.5499,85.08471821289062Q93.6148,85.04131821289063,93.6752,84.99171821289062Q93.7356,84.94221821289062,93.7909,84.88691821289062Q93.8462,84.83171821289062,93.8957,84.77131821289062Q93.9453,84.71091821289062,93.9887,84.64591821289062Q94.0321,84.58091821289062,94.069,84.51201821289062Q94.1058,84.44311821289062,94.1357,84.37091821289063Q94.1656,84.29881821289062,94.1883,84.22401821289063Q94.2109,84.14921821289063,94.2262,84.07261821289063Q94.2414,83.99601821289062,94.2491,83.91821821289062Q94.2567,83.84041821289063,94.2567,83.76231821289062L94.2567,76.74389821289063Q94.2567,74.46076821289063,92.6272,72.84171621289063Q91.007,71.23196821289062,88.7397,71.23196821289062L87.4141,71.23196821289062Q85.2487,71.23196821289062,83.6644,72.76044131289062Q82.1125,74.25762821289062,81.9521,76.41838821289062L81.9507,76.43902821289062Q81.8786,77.61786821289063,81.7348,80.81858821289063Q81.3355,89.70581821289062,80.8765,95.13871821289062Q80.0694,104.69111821289063,78.6346,111.75571821289063Q76.8346,120.61791821289063,74.0444,125.70271821289063Q70.97200000000001,131.30171821289062,66.82589999999999,132.07431821289063L66.8223,132.07501821289063Q54.7121,134.36031821289063,43.8657,132.75601821289064Q34.0347,131.30191821289063,26.9489,126.96581821289062Q26.9475,126.96491821289062,26.9459,126.96401821289062Q26.7228,126.82661821289062,26.5475,126.70311821289062Q27.4622,126.32321821289062,29.3134,125.91571821289062Q30.6096,125.63031821289061,33.695499999999996,125.07821821289062Q36.7765,124.52701821289062,38.3061,124.20641821289063Q39.2667,124.02391821289064,39.7902,123.22801821289062Q40.2464,122.53421821289062,40.152100000000004,121.68761821289063Q40.06,120.86101821289063,39.485,120.28191821289062Q38.8156,119.60771821289063,37.844899999999996,119.60771821289063L10,119.60771821289063Q9.9218662,119.60781821289063,9.844109,119.61541821289063Q9.766351,119.62311821289063,9.689719,119.63831821289062Q9.613086,119.65351821289062,9.538317,119.67621821289063Q9.463547,119.69891821289062,9.391361,119.72881821289062Q9.319175,119.75871821289063,9.250267000000001,119.79551821289063Q9.181359,119.83241821289062,9.116393,119.87581821289064Q9.051427,119.91921821289063,8.99103,119.96881821289062Q8.93063,120.01831821289062,8.87538,120.07361821289062Q8.82013,120.12881821289062,8.77057,120.18921821289062Q8.721,120.24961821289062,8.67759,120.31461821289062Q8.63418,120.37961821289062,8.59735,120.44851821289063Q8.56052,120.51741821289062,8.53062,120.58961821289063Q8.50072,120.66171821289063,8.47803,120.73651821289062Q8.45535,120.81131821289063,8.44011,120.88791821289063Q8.42487,120.96461821289063,8.41721,121.04231821289062Q8.40955,121.12011821289062,8.40955,121.19821821289062Q8.40955,121.27631821289063,8.41721,121.35411821289063Q8.42487,121.43181821289062,8.44011,121.50851821289064Q8.45535,121.58511821289062,8.47803,121.65991821289063Q8.50072,121.73461821289062,8.53062,121.80681821289062Q8.56052,121.87901821289063,8.59735,121.94791821289063Q8.63418,122.01681821289063,8.67759,122.08181821289062Q8.721,122.14681821289062,8.77057,122.20721821289062Q8.82013,122.26761821289062,8.87538,122.32281821289062Q8.93063,122.37811821289063,8.99103,122.42761821289062Q9.051427,122.47721821289062,9.116393,122.52061821289062Q9.181359,122.56401821289063,9.250267000000001,122.60081821289063Q9.319175,122.63771821289063,9.391361,122.66761821289063Q9.463547,122.69751821289063,9.538317,122.72021821289061Q9.613086,122.74281821289063,9.689719,122.75811821289062Q9.766351,122.77331821289062,9.844109,122.78101821289061Q9.9218662,122.78861821289063,10,122.78861821289063L28.7234,122.78861821289063Q28.6755,122.79911821289062,28.6295,122.80921821289063Q26.2781,123.32681821289063,25.0671,123.87881821289062Q22.843,124.89241821289062,22.912100000000002,126.64741821289063Q22.9755,128.2561182128906,25.2823,129.67521821289063L25.2853,129.67701821289063Q32.925399999999996,134.35331821289063,43.4003,135.90271821289062Q54.7745,137.58501821289065,67.4086,135.20141821289062Q67.41040000000001,135.20111821289063,67.4122,135.20071821289062Q77.5012,133.31701821289062,81.7518,112.38881821289063Q83.2234,105.14311821289063,84.0461,95.40641821289063Q84.5104,89.91111821289063,84.9124,80.96134821289063Q85.0544,77.80215821289062,85.1249,76.64466821289062Q85.1981,75.70071821289062,85.8729,75.04964821289063Q86.5329,74.41286821289063,87.4141,74.41286821289063L88.7397,74.41286821289063Q89.6954,74.41286821289063,90.3852,75.09822821289063Q91.0759,75.78439821289062,91.0759,76.74389821289063ZM37.6894,121.08591821289062L37.7162,121.08071821289062Q37.7027,121.08311821289062,37.6894,121.08591821289062Z" fill-rule="evenodd" fill="#AAB2C2" fill-opacity="1"/></g><g><path d="M92.89331114013672,73.8352548803711C93.47878114013672,76.34785488037109,91.45874114013672,77.57494488037109,88.72876114013673,78.23068488037109C85.99879114013672,78.8799448803711,83.65102114013672,78.69815488037109,83.06552214013672,76.1855448803711C82.48002314013672,73.67293488037109,84.19548114013672,71.1408528803711,86.92545114013672,70.4916008803711C89.65543114013671,69.8358558803711,92.30781114013672,71.32264388037109,92.89331114013672,73.8352548803711Z" fill="#989FB0" fill-opacity="1"/></g><g><path d="M90.26978455761719,96.87722221679688C89.75995755761718,96.87722221679688,89.35209655761719,96.46819221679688,89.35209655761719,95.94879221679687L89.35209655761719,92.33894621679687C89.35209655761719,91.81954421679687,89.75995755761718,91.40402221679688,90.26978455761719,91.40402221679688C90.77960655761719,91.40402221679688,91.18747655761719,91.81954421679687,91.18747655761719,92.33894621679687L91.18747655761719,95.94879221679687C91.18747655761719,96.52013221679688,90.77960655761719,96.87722221679688,90.26978455761719,96.87722221679688Z" fill="#989FB0" fill-opacity="1"/></g><g><path d="M95.01213227490234,96.87722221679688C94.50230527490234,96.87722221679688,94.09444427490234,96.46819221679688,94.09444427490234,95.94879221679687L94.09444427490234,92.33894621679687C94.09444427490234,91.81954421679687,94.50230527490234,91.40402221679688,95.01213227490234,91.40402221679688C95.52260427490235,91.40402221679688,95.93046427490235,91.81954421679687,95.93046427490235,92.33894621679687L95.93046427490235,95.94879221679687C95.93046427490235,96.52013221679688,95.52260427490235,96.87722221679688,95.01213227490234,96.87722221679688Z" fill="#989FB0" fill-opacity="1"/></g><g><path d="M97.40927942382812,92.38439789794921L88.02590942382812,92.38439789794921L88.02590942382812,91.30014789794922C88.02590942382812,88.67067789794922,90.11651942382812,84.12590789794922,92.71759942382812,84.12590789794922C95.31866942382813,84.12590789794922,97.40927942382812,88.67067789794922,97.40927942382812,91.30014789794922L97.40927942382812,92.38439789794921L97.40927942382812,92.38439789794921Z" fill="#989FB0" fill-opacity="1"/></g><g><path d="M137.0339998779297,94.19585554809571L117.7061598779297,94.19585554809571C116.89043287792968,94.19585554809571,116.27799987792969,93.5205555480957,116.27799987792969,92.7479555480957L116.27799987792969,71.8874955480957C116.27799987792969,71.0629455480957,116.94109487792969,70.4461555480957,117.7061598779297,70.4461555480957L137.0339998779297,70.4461555480957C137.84979987792968,70.4461555480957,138.4621998779297,71.1148855480957,138.4621998779297,71.8874955480957L138.4621998779297,92.7479555480957C138.5128998779297,93.5205555480957,137.84979987792968,94.19585554809571,137.0339998779297,94.19585554809571Z" fill="#EAEEF9" fill-opacity="1"/></g><g><path d="M134.63753514404297,81.90546348510742C134.63753514404297,84.33366348510742,133.46463514404297,86.55415348510742,131.67923514404296,87.89805348510743L122.95897514404297,87.89805348510743C121.17425514404297,86.55415348510742,120.00133514404297,84.38560348510742,120.00133514404297,81.90546348510742C120.00133514404297,79.47725348510743,121.17425514404297,77.25681348510741,122.95897514404297,75.91935348510742L131.67923514404296,75.91935348510742C133.46463514404297,77.30875348510742,134.63753514404297,79.47725348510743,134.63753514404297,81.90546348510742Z" fill="#CCD3DE" fill-opacity="1"/></g><g><path d="M124.59105825683594,82.32098416748047C124.23385925683594,82.32098416748047,123.92796325683594,82.00933416748047,123.92796325683594,81.64575416748048L123.92796325683594,79.42531416748047C123.92796325683594,79.06822516748046,124.23385925683594,78.75658416748047,124.59105825683594,78.75658416748047C124.94761325683594,78.75658416748047,125.25351325683594,79.06822516748046,125.25351325683594,79.42531416748047L125.25351325683594,81.64575416748048C125.25351325683594,82.00933416748047,124.94761325683594,82.32098416748047,124.59105825683594,82.32098416748047Z" fill="#989FB0" fill-opacity="1"/></g><g><path d="M129.9451917319336,82.32098416748047C129.58863373193358,82.32098416748047,129.2827377319336,82.00933416748047,129.2827377319336,81.64575416748048L129.2827377319336,79.42531416748047C129.2827377319336,79.06822516748046,129.58863373193358,78.75658416748047,129.9451917319336,78.75658416748047C130.3023877319336,78.75658416748047,130.6082877319336,79.06822516748046,130.6082877319336,79.42531416748047L130.6082877319336,81.64575416748048C130.6082877319336,82.00933416748047,130.3023877319336,82.32098416748047,129.9451917319336,82.32098416748047Z" fill="#989FB0" fill-opacity="1"/></g><g><path d="M127.90589076660156,85.52179465820312L126.57970276660156,85.52179465820312C126.27380676660157,85.52179465820312,125.96791076660156,85.26209465820313,125.96791076660156,84.89851465820313L125.96791076660156,84.22978465820313C125.96791076660156,83.50911665820313,126.52839976660157,82.93777465820312,127.24280076660156,82.93777465820312C127.95655076660157,82.93777465820312,128.51768076660156,83.50911665820313,128.51768076660156,84.22978465820313L128.51768076660156,84.89851465820313C128.51768076660156,85.21015465820312,128.26245076660157,85.52179465820312,127.90589076660156,85.52179465820312Z" fill="#989FB0" fill-opacity="1"/></g><g><path d="M118.62383791845703,73.59502603027343C119.10288391845702,73.59502603027343,119.49086391845704,73.19898603027343,119.49086391845704,72.71853903027343C119.49086391845704,72.23160003027344,119.10288391845702,71.83555603027344,118.62383791845703,71.83555603027344C118.14543491845703,71.83555603027344,117.75745391845703,72.23160003027344,117.75745391845703,72.71853903027343C117.75745391845703,73.19898603027343,118.14543491845703,73.59502603027343,118.62383791845703,73.59502603027343Z" fill="#D2DAE7" fill-opacity="1"/></g><g><path d="M136.21829858300782,73.59502603027343C136.6967025830078,73.59502603027343,137.0853225830078,73.19898603027343,137.0853225830078,72.71853903027343C137.0853225830078,72.23160003027344,136.6967025830078,71.83555603027344,136.21829858300782,71.83555603027344C135.7392535830078,71.83555603027344,135.3512725830078,72.23160003027344,135.3512725830078,72.71853903027343C135.3512725830078,73.19898603027343,135.7392535830078,73.59502603027343,136.21829858300782,73.59502603027343Z" fill="#D2DAE7" fill-opacity="1"/></g><g><path d="M118.62383791845703,92.851856953125C119.10288391845702,92.851856953125,119.49086391845704,92.462306953125,119.49086391845704,91.975367953125C119.49086391845704,91.488427953125,119.10288391845702,91.098876953125,118.62383791845703,91.098876953125C118.14543491845703,91.098876953125,117.75745391845703,91.488427953125,117.75745391845703,91.975367953125C117.75745391845703,92.462306953125,118.14543491845703,92.851856953125,118.62383791845703,92.851856953125Z" fill="#D2DAE7" fill-opacity="1"/></g><g><path d="M136.21829858300782,92.851856953125C136.6967025830078,92.851856953125,137.0853225830078,92.462306953125,137.0853225830078,91.975367953125C137.0853225830078,91.488427953125,136.6967025830078,91.098876953125,136.21829858300782,91.098876953125C135.7392535830078,91.098876953125,135.3512725830078,91.488427953125,135.3512725830078,91.975367953125C135.3512725830078,92.462306953125,135.7392535830078,92.851856953125,136.21829858300782,92.851856953125Z" fill="#D2DAE7" fill-opacity="1"/></g><g><path d="M78.1378402709961,15L81.2647802709961,16.15567L82.07537027099609,36.8538L80.37659027099609,36.1332L78.1378402709961,15Z" fill="#B8BFCD" fill-opacity="1"/></g><g><path d="M80.53113555908203,38.489952087402344L82.07536555908203,39.24308508740234L82.07536555908203,41.28174208740234L80.53113555908203,40.63898208740235L80.53113555908203,38.489952087402344Z" fill="#B8BFCD" fill-opacity="1"/></g><g><path d="M84.7001724243164,25.407516479492188L87.82711242431641,26.446316479492186L87.82711242431641,39.76251647949219L86.0898524243164,39.048316479492186L84.7001724243164,25.407516479492188Z" fill="#B8BFCD" fill-opacity="1"/></g><g><path d="M86.24440002441406,41.28173828125L87.82711002441407,41.99591628125L87.82711002441407,43.91120828125L86.24440002441406,43.31389828125L86.24440002441406,41.28173828125Z" fill="#B8BFCD" fill-opacity="1"/></g></g></g></svg>