<svg xmlns="http://www.w3.org/2000/svg" xmlns:xlink="http://www.w3.org/1999/xlink" fill="none" version="1.1" width="400" height="400" viewBox="0 0 400 400"><defs><clipPath id="master_svg0_378_12811"><rect x="0" y="0" width="400" height="400" rx="0"/></clipPath></defs><g clip-path="url(#master_svg0_378_12811)"><g><g><path d="M317.4331220703125,198.8998779296875L277.6001220703125,140.6665479296875L274.9661220703125,138.0665479296875L271.3001220703125,136.4998779296875L267.5001220703125,136.4998779296875L263.9661220703125,137.8998779296875L261.06612207031253,140.6665479296875L221.2331220703125,198.8998779296875L219.9332220703125,201.5998779296875L219.4665220703125,204.5665779296875L220.2665220703125,208.4665779296875L222.3998220703125,211.63317792968752L225.5665220703125,213.76657792968751L229.4665220703125,214.5665779296875L309.2001220703125,214.5665779296875L312.1661220703125,214.0998779296875L314.83312207031247,212.7998779296875L317.63312207031254,209.9331779296875L319.0331220703125,206.3998779296875L319.0001220703125,202.5998779296875L317.4331220703125,198.8998779296875ZM144.3334520703125,215.9997779296875L141.0667920703125,215.3330779296875L138.4334520703125,213.5664779296875L136.6667910703125,210.9331779296875L136.0001220703125,207.66647792968752L136.6667910703125,204.3997779296875L138.4334520703125,201.76647792968748L141.0667920703125,199.9997779296875L144.3334520703125,199.3331779296875L147.6001220703125,199.9997779296875L150.23342207031249,201.76647792968748L152.0001220703125,204.3997779296875L152.6668220703125,207.66647792968752L152.0001220703125,210.9331779296875L150.23342207031249,213.5664779296875L147.6001220703125,215.3330779296875L144.3334520703125,215.9997779296875ZM171.0001220703125,215.9997779296875L167.73342207031249,215.3330779296875L165.1001220703125,213.5664779296875L163.3334220703125,210.9331779296875L162.6668220703125,207.66647792968752L163.3334220703125,204.3997779296875L165.1001220703125,201.76647792968748L167.73342207031249,199.9997779296875L171.0001220703125,199.3331779296875L174.26682207031251,199.9997779296875L176.9001220703125,201.76647792968748L178.6668220703125,204.3997779296875L179.3334220703125,207.66647792968752L178.6668220703125,210.9331779296875L176.9001220703125,213.5664779296875L174.26682207031251,215.3330779296875L171.0001220703125,215.9997779296875ZM139.3334520703125,229.3331779296875L139.3334520703125,242.6668779296875L259.33312207031247,242.6668779296875L259.33312207031247,229.3331779296875L139.3334520703125,229.3331779296875ZM144.3334520703125,272.66687792968753L141.0667920703125,271.9998779296875L138.4334520703125,270.2328779296875L136.6667910703125,267.5998779296875L136.0001220703125,264.33287792968747L136.6667910703125,261.0668779296875L138.4334520703125,258.4328779296875L141.0667920703125,256.66687792968753L144.3334520703125,255.9998779296875L147.6001220703125,256.66687792968753L150.23342207031249,258.4328779296875L152.0001220703125,261.0668779296875L152.6668220703125,264.33287792968747L152.0001220703125,267.5998779296875L150.23342207031249,270.2328779296875L147.6001220703125,271.9998779296875L144.3334520703125,272.66687792968753ZM171.0001220703125,272.66687792968753L167.73342207031249,271.9998779296875L165.1001220703125,270.2328779296875L163.3334220703125,267.5998779296875L162.6668220703125,264.33287792968747L163.3334220703125,261.0668779296875L165.1001220703125,258.4328779296875L167.73342207031249,256.66687792968753L171.0001220703125,255.9998779296875L174.26682207031251,256.66687792968753L176.9001220703125,258.4328779296875L178.6668220703125,261.0668779296875L179.3334220703125,264.33287792968747L178.6668220703125,267.5998779296875L176.9001220703125,270.2328779296875L174.26682207031251,271.9998779296875L171.0001220703125,272.66687792968753Z" fill-rule="evenodd" fill="currentColor" fill-opacity="0.10000000149011612"/></g><g><path d="M303.6663740234375,78.33338701171876L312.6663740234375,78.33338701171876L314.7003740234375,79.19998701171875L315.3333740234375,80.99998701171874L314.7003740234375,82.79998701171874L312.6663740234375,83.66668701171875L303.6663740234375,83.66668701171875L303.6663740234375,92.66668701171875L302.8003740234375,94.69998701171875L301.0003740234375,95.33338701171874L299.20037402343746,94.69998701171875L298.3333740234375,92.66668701171875L298.3333740234375,83.66668701171875L289.3333740234375,83.66668701171875L287.3003740234375,82.79998701171874L286.66637402343747,80.99998701171874L287.3003740234375,79.19998701171875L289.3333740234375,78.33338701171876L298.3333740234375,78.33338701171876L298.3333740234375,69.33334701171874L299.20037402343746,67.30002801171875L301.0003740234375,66.66668701171875L302.8003740234375,67.30002801171875L303.6663740234375,69.33334701171874L303.6663740234375,78.33338701171876ZM119.7331740234375,96.00008701171875L120.9998740234375,95.50008701171875L122.0998740234375,96.00008701171875L122.5998740234375,97.06678701171874L122.0998740234375,98.36678701171874L119.7498740234375,100.71678701171875L122.0998740234375,103.06678701171876L122.5998740234375,104.33338701171874L122.0998740234375,105.43338701171875L120.9998740234375,105.93338701171875L119.7331740234375,105.43338701171875L117.3664740234375,103.06678701171876L115.0331740234375,105.43338701171875L113.7331740234375,105.93338701171875L112.6664740234375,105.43338701171875L112.1664740234375,104.33338701171874L112.6664740234375,103.06678701171876L115.0165740234375,100.71678701171875L112.6664740234375,98.36678701171874L112.1664740234375,97.06678701171874L112.6664740234375,96.00008701171875L113.7331740234375,95.50008701171875L115.0331740234375,96.00008701171875L117.3664740234375,98.36678701171874L119.7331740234375,96.00008701171875ZM276.8403740234375,136.16918701171875L279.6563740234375,138.94948701171876L319.7853740234375,197.61468701171876L321.6623740234375,202.04768701171875L321.7043740234375,206.89768701171874L319.9153740234375,211.41368701171876L316.4173740234375,214.99468701171875L312.9763740234375,216.67268701171875L309.4083740234375,217.23368701171876L282.00037402343753,217.23368701171876L282.00037402343753,219.60168701171875L281.0393740234375,224.32368701171876L278.3193740234375,228.31968701171874L274.3243740234375,231.03968701171874L269.60137402343753,231.99968701171875L262.00037402343753,231.99968701171875L262.00037402343753,239.99968701171875L269.60137402343753,239.99968701171875L274.3243740234375,240.96068701171876L278.3193740234375,243.68068701171876L281.0393740234375,247.67568701171874L282.00037402343753,252.39868701171875L282.00037402343753,276.2686870117187L281.0393740234375,280.99068701171876L278.3193740234375,284.9856870117187L274.3243740234375,287.7066870117187L269.60137402343753,288.66668701171875L129.06497402343751,288.66668701171875L124.3427740234375,287.7066870117187L120.3473740234375,284.9856870117187L117.6271740234375,280.99068701171876L116.6666740234375,276.2686870117187L116.6666740234375,252.39868701171875L117.6271740234375,247.67568701171874L120.3473740234375,243.68068701171876L124.3427740234375,240.96068701171876L124.8685740234375,240.85368701171876L129.06497402343751,239.99968701171875L136.6666740234375,239.99968701171875L136.6666740234375,231.99968701171875L129.06497402343751,231.99968701171875L124.3427740234375,231.03968701171874L120.3473740234375,228.31968701171874L117.6271740234375,224.32368701171876L116.6666740234375,219.60168701171875L116.6666740234375,195.73168701171875L117.6271740234375,191.00968701171877L120.3473740234375,187.01368701171873L124.3427740234375,184.29368701171876L124.8685740234375,184.18668701171873L129.06497402343751,183.33368701171875L228.6503740234375,183.33368701171875L259.0233740234375,138.93038701171875L262.5013740234375,135.61218701171873L266.9913740234375,133.83338701171874L271.84637402343753,133.83338701171874L276.4803740234375,135.81348701171873L276.8403740234375,136.16918701171875ZM225.0023740234375,188.66668701171875L129.60177402343749,188.66668701171875L126.4572740234375,189.30668701171874L124.1859740234375,190.85268701171876L122.6395740234375,193.12368701171874L122.0000740234375,196.26868701171875L122.0000740234375,219.06468701171875L122.6395740234375,222.20968701171876L124.1859740234375,224.48068701171874L126.4572740234375,226.02668701171876L129.60177402343749,226.66668701171875L269.06537402343747,226.66668701171875L272.2093740234375,226.02668701171876L274.4803740234375,224.48068701171874L276.02737402343746,222.20968701171876L276.66637402343747,219.06468701171875L276.66637402343747,217.23368701171876L229.1963740234375,217.23368701171876L224.5143740234375,216.27268701171874L220.4793740234375,213.55468701171876L217.7603740234375,209.51968701171876L216.7573740234375,204.62968701171874L217.3603740234375,200.79768701171875L218.9183740234375,197.56168701171876L225.0023740234375,188.66668701171875ZM270.7543740234375,139.16678701171875L273.4533740234375,140.32008701171875L275.5443740234375,142.38408701171875L315.0813740234375,200.18568701171876L316.3383740234375,203.15268701171874L316.3623740234375,205.90268701171874L315.3513740234375,208.45368701171876L313.2493740234375,210.60568701171874L311.3573740234375,211.52768701171874L308.9913740234375,211.89968701171875L229.7373740234375,211.89968701171875L226.6193740234375,211.26068701171874L224.3213740234375,209.71268701171874L222.7733740234375,207.41468701171874L222.1763740234375,204.50368701171874L222.5063740234375,202.40268701171874L223.5483740234375,200.23868701171875L263.1093740234375,142.40318701171876L265.4313740234375,140.18798701171875L268.0093740234375,139.16678701171875L270.7543740234375,139.16678701171875ZM277.0663740234375,166.26678701171875L274.3003740234375,185.26668701171874L273.16637402343747,187.29968701171873L271.00037402343753,188.09968701171874L269.1333740234375,188.09968701171874L266.96637402343754,187.29968701171873L265.8333740234375,185.26668701171874L263.0663740234375,166.26678701171875L263.2333740234375,163.60008701171876L264.3333740234375,161.30008701171874L266.20037402343746,159.60008701171876L268.70037402343746,158.70008701171875L269.66637402343747,158.63348701171876L270.46637402343754,158.63348701171876L273.1003740234375,159.16678701171875L275.20037402343746,160.56678701171876L276.6003740234375,162.66678701171875L277.1333740234375,165.30008701171874L277.0663740234375,166.26678701171875ZM56.6666740234375,162.66668701171875L57.5333740234375,160.63338701171875L59.3333740234375,159.99998701171876L61.1333740234375,160.63338701171875L62.0000740234375,162.66668701171875L62.0000740234375,169.99968701171875L69.3333740234375,169.99968701171875L71.3666740234375,170.86668701171874L72.00007402343749,172.66668701171875L71.3666740234375,174.46668701171876L69.3333740234375,175.33368701171875L62.0000740234375,175.33368701171875L62.0000740234375,182.66668701171875L61.1333740234375,184.69968701171877L59.3333740234375,185.33368701171875L57.5333740234375,184.69968701171877L56.6666740234375,182.66668701171875L56.6666740234375,175.33368701171875L49.3333740234375,175.33368701171875L47.3000440234375,174.46668701171876L46.666704023437504,172.66668701171875L47.3000440234375,170.86668701171874L49.3333740234375,169.99968701171875L56.6666740234375,169.99968701171875L56.6666740234375,162.66668701171875ZM270.3663740234375,200.79968701171876L269.96637402343754,200.79968701171876L268.20037402343746,200.46668701171876L266.8003740234375,199.49968701171875L265.8333740234375,198.06668701171876L265.50037402343753,196.33368701171875L265.8333740234375,194.56668701171876L266.8003740234375,193.13368701171873L268.20037402343746,192.19968701171877L269.96637402343754,191.83368701171875L270.3663740234375,191.83368701171875L272.1333740234375,192.19968701171877L273.5333740234375,193.13368701171873L274.50037402343753,194.56668701171876L274.8663740234375,196.33368701171875L274.50037402343753,198.06668701171876L273.5333740234375,199.49968701171875L272.1333740234375,200.46668701171876L270.3663740234375,200.79968701171876ZM144.3333740234375,217.70068701171874L147.9333740234375,216.96668701171876L148.2553740234375,216.90068701171876L151.4343740234375,214.76768701171875L153.56737402343748,211.58868701171875L154.3673740234375,207.66668701171875L153.56737402343748,203.74468701171875L151.4343740234375,200.56568701171875L148.2553740234375,198.43268701171874L144.3333740234375,197.63268701171876L140.4111740234375,198.43268701171874L137.2321740234375,200.56568701171875L135.09937402343752,203.74468701171875L134.2989740234375,207.66668701171875L135.09937402343752,211.58868701171875L137.2321740234375,214.76768701171875L140.4111740234375,216.90068701171876L144.3333740234375,217.70068701171874ZM171.0003740234375,217.70068701171874L174.6003740234375,216.96668701171876L174.9223740234375,216.90068701171876L178.1013740234375,214.76768701171875L180.2333740234375,211.58868701171875L181.0343740234375,207.66668701171875L180.2333740234375,203.74468701171875L178.1013740234375,200.56568701171875L174.9223740234375,198.43268701171874L171.0003740234375,197.63268701171876L167.0773740234375,198.43268701171874L163.8983740234375,200.56568701171875L161.7663740234375,203.74468701171875L160.9653740234375,207.66668701171875L161.7663740234375,211.58868701171875L163.8983740234375,214.76768701171875L167.0773740234375,216.90068701171876L171.0003740234375,217.70068701171874ZM146.9443740234375,213.76568701171874L144.3333740234375,214.29868701171876L141.7220740234375,213.76568701171874L139.63447402343752,212.36568701171876L138.2338740234375,210.27768701171874L137.70097402343748,207.66668701171875L138.2338740234375,205.05568701171876L139.63447402343752,202.96768701171874L141.7220740234375,201.56768701171876L144.3333740234375,201.03468701171874L146.9443740234375,201.56768701171876L149.0323740234375,202.96768701171874L150.4323740234375,205.05568701171876L150.9653740234375,207.66668701171875L150.4323740234375,210.27768701171874L149.0323740234375,212.36568701171876L146.9443740234375,213.76568701171874ZM173.6113740234375,213.76568701171874L171.0003740234375,214.29868701171876L168.3883740234375,213.76568701171874L166.30137402343752,212.36568701171876L164.9003740234375,210.27768701171874L164.3673740234375,207.66668701171875L164.9003740234375,205.05568701171876L166.30137402343752,202.96768701171874L168.3883740234375,201.56768701171876L171.0003740234375,201.03468701171874L173.6113740234375,201.56768701171876L175.6983740234375,202.96768701171874L177.0993740234375,205.05568701171876L177.6323740234375,207.66668701171875L177.0993740234375,210.27768701171874L175.6983740234375,212.36568701171876L173.6113740234375,213.76568701171874ZM142.0000740234375,239.99968701171875L142.0000740234375,231.99968701171875L256.66637402343747,231.99968701171875L256.66637402343747,239.99968701171875L142.0000740234375,239.99968701171875ZM310.0003740234375,242.66668701171875L310.8663740234375,240.63368701171876L312.6663740234375,239.99968701171875L314.4663740234375,240.63368701171876L315.3333740234375,242.66668701171875L315.3333740234375,249.99968701171875L322.6663740234375,249.99968701171875L324.7003740234375,250.86668701171874L325.3333740234375,252.66668701171875L324.7003740234375,254.46668701171876L322.6663740234375,255.33368701171875L315.3333740234375,255.33368701171875L315.3333740234375,262.66668701171875L314.4663740234375,264.69968701171877L312.6663740234375,265.3336870117188L310.8663740234375,264.69968701171877L310.0003740234375,262.66668701171875L310.0003740234375,255.33368701171875L302.6663740234375,255.33368701171875L300.6333740234375,254.46668701171876L300.0003740234375,252.66668701171875L300.6333740234375,250.86668701171874L302.6663740234375,249.99968701171875L310.0003740234375,249.99968701171875L310.0003740234375,242.66668701171875ZM126.4572740234375,245.97268701171876L124.1859740234375,247.51968701171876L122.6395740234375,249.79068701171875L122.0000740234375,252.93468701171875L122.0000740234375,275.73168701171875L122.6395740234375,278.87568701171875L124.1859740234375,281.14768701171874L126.4572740234375,282.69368701171874L129.60177402343749,283.3336870117188L269.06537402343747,283.3336870117188L272.2093740234375,282.69368701171874L274.4803740234375,281.14768701171874L276.02737402343746,278.87568701171875L276.66637402343747,275.73168701171875L276.66637402343747,252.93468701171875L276.02737402343746,249.79068701171875L274.4803740234375,247.51968701171876L272.2093740234375,245.97268701171876L269.06537402343747,245.33368701171875L129.60177402343749,245.33368701171875L126.4572740234375,245.97268701171876ZM144.3333740234375,274.3676870117188L147.9333740234375,273.63268701171876L148.2553740234375,273.56768701171876L151.4343740234375,271.4346870117188L153.56737402343748,268.25568701171875L154.3673740234375,264.3336870117188L153.56737402343748,260.4106870117188L151.4343740234375,257.23168701171875L148.2553740234375,255.09968701171874L144.3333740234375,254.29868701171876L140.4111740234375,255.09968701171874L137.2321740234375,257.23168701171875L135.09937402343752,260.4106870117188L134.2989740234375,264.3336870117188L135.09937402343752,268.25568701171875L137.2321740234375,271.4346870117188L140.4111740234375,273.56768701171876L144.3333740234375,274.3676870117188ZM171.0003740234375,274.3676870117188L174.6003740234375,273.63268701171876L174.9223740234375,273.56768701171876L178.1013740234375,271.4346870117188L180.2333740234375,268.25568701171875L181.0343740234375,264.3336870117188L180.2333740234375,260.4106870117188L178.1013740234375,257.23168701171875L174.9223740234375,255.09968701171874L171.0003740234375,254.29868701171876L167.0773740234375,255.09968701171874L163.8983740234375,257.23168701171875L161.7663740234375,260.4106870117188L160.9653740234375,264.3336870117188L161.7663740234375,268.25568701171875L163.8983740234375,271.4346870117188L167.0773740234375,273.56768701171876L171.0003740234375,274.3676870117188ZM146.9443740234375,270.4326870117187L144.3333740234375,270.9656870117187L141.7220740234375,270.4326870117187L139.63447402343752,269.03168701171876L138.2338740234375,266.94468701171877L137.70097402343748,264.3336870117188L138.2338740234375,261.72168701171876L139.63447402343752,259.6346870117187L141.7220740234375,258.23368701171876L144.3333740234375,257.70068701171874L146.9443740234375,258.23368701171876L149.0323740234375,259.6346870117187L150.4323740234375,261.72168701171876L150.9653740234375,264.3336870117188L150.4323740234375,266.94468701171877L149.0323740234375,269.03168701171876L146.9443740234375,270.4326870117187ZM173.6113740234375,270.4326870117187L171.0003740234375,270.9656870117187L168.3883740234375,270.4326870117187L166.30137402343752,269.03168701171876L164.9003740234375,266.94468701171877L164.3673740234375,264.3336870117188L164.9003740234375,261.72168701171876L166.30137402343752,259.6346870117187L168.3883740234375,258.23368701171876L171.0003740234375,257.70068701171874L173.6113740234375,258.23368701171876L175.6983740234375,259.6346870117187L177.0993740234375,261.72168701171876L177.6323740234375,264.3336870117188L177.0993740234375,266.94468701171877L175.6983740234375,269.03168701171876L173.6113740234375,270.4326870117187ZM90.2998740234375,270.46668701171876L91.59987402343751,269.96668701171876L92.6664740234375,270.46668701171876L93.1664740234375,271.5666870117187L92.6664740234375,272.8336870117188L90.3165740234375,275.18368701171875L92.6664740234375,277.5336870117187L93.1664740234375,278.8336870117188L92.6664740234375,279.89968701171875L91.59987402343751,280.43368701171875L90.2998740234375,279.89968701171875L87.9664740234375,277.5336870117187L85.59987402343751,279.89968701171875L84.3331740234375,280.43368701171875L83.2331740234375,279.89968701171875L82.7331740234375,278.8336870117188L83.2331740234375,277.5336870117187L85.5831740234375,275.18368701171875L83.2331740234375,272.8336870117188L82.7331740234375,271.5666870117187L83.2331740234375,270.46668701171876L84.3331740234375,269.96668701171876L85.59987402343751,270.46668701171876L87.9664740234375,272.8336870117188L90.2998740234375,270.46668701171876ZM46.0000340234375,310.3336870117188L44.1000390234375,309.5666870117187L43.3333740234375,307.66668701171875L44.1000390234375,305.7666870117188L46.0000340234375,304.9996870117187L279.3333740234375,304.9996870117187L281.2333740234375,305.7666870117188L282.00037402343753,307.66668701171875L281.2333740234375,309.5666870117187L279.3333740234375,310.3336870117188L46.0000340234375,310.3336870117188ZM292.66637402343747,310.3336870117188L290.7663740234375,309.5666870117187L290.00037402343753,307.66668701171875L290.7663740234375,305.7666870117188L292.66637402343747,304.9996870117187L301.0003740234375,304.9996870117187L302.9003740234375,305.7666870117188L303.6663740234375,307.66668701171875L302.9003740234375,309.5666870117187L301.0003740234375,310.3336870117188L292.66637402343747,310.3336870117188ZM322.6663740234375,310.3336870117188L320.7663740234375,309.5666870117187L320.0003740234375,307.66668701171875L320.7663740234375,305.7666870117188L322.6663740234375,304.9996870117187L352.6663740234375,304.9996870117187L354.5663740234375,305.7666870117188L355.3333740234375,307.66668701171875L354.5663740234375,309.5666870117187L352.6663740234375,310.3336870117188L322.6663740234375,310.3336870117188ZM122.6666740234375,335.3336870117187L120.7666740234375,334.5666870117187L120.0000740234375,332.66668701171875L120.7666740234375,330.7666870117188L122.6666740234375,329.9996870117188L146.0003740234375,329.9996870117188L147.9003740234375,330.7666870117188L148.6663740234375,332.66668701171875L147.9003740234375,334.5666870117187L146.0003740234375,335.3336870117187L122.6666740234375,335.3336870117187ZM161.0003740234375,335.3336870117187L159.1003740234375,334.5666870117187L158.3333740234375,332.66668701171875L159.1003740234375,330.7666870117188L161.0003740234375,329.9996870117188L262.66637402343747,329.9996870117188L264.5663740234375,330.7666870117188L265.3333740234375,332.66668701171875L264.5663740234375,334.5666870117187L262.66637402343747,335.3336870117187L161.0003740234375,335.3336870117187Z" fill-rule="evenodd" fill="currentColor" fill-opacity="1"/></g></g></g></svg>
