<svg xmlns="http://www.w3.org/2000/svg" xmlns:xlink="http://www.w3.org/1999/xlink" fill="none" version="1.1" width="150" height="150" viewBox="0 0 150 150"><defs><clipPath id="master_svg0_393_15003"><rect x="0" y="0" width="150" height="150" rx="0"/></clipPath><filter id="master_svg1_393_14589" filterUnits="objectBoundingBox" color-interpolation-filters="sRGB" x="-44" y="-33" width="176.0030059814453" height="167.06930541992188"><feFlood flood-opacity="0" result="BackgroundImageFix"/><feColorMatrix in="SourceAlpha" type="matrix" values="0 0 0 0 0 0 0 0 0 0 0 0 0 0 0 0 0 0 127 0"/><feOffset dy="11" dx="0"/><feGaussianBlur stdDeviation="11"/><feColorMatrix type="matrix" values="0 0 0 0 0.3960784375667572 0 0 0 0 0.47843137383461 0 0 0 0 0.5764706134796143 0 0 0 0.27000001072883606 0"/><feBlend mode="normal" in2="BackgroundImageFix" result="effect1_dropShadow"/><feBlend mode="normal" in="SourceGraphic" in2="effect1_dropShadow" result="shape"/></filter><linearGradient x1="0.4996841251850128" y1="-0.02316455729305744" x2="0.4996841251850128" y2="1.0107594728469849" id="master_svg2_393_14591"><stop offset="0%" stop-color="#FDFEFF" stop-opacity="1"/><stop offset="99.6399998664856%" stop-color="#ECF0F5" stop-opacity="1"/></linearGradient><linearGradient x1="0.5000797510147095" y1="0.03485477343201637" x2="0.5000797510147095" y2="0.5958506464958191" id="master_svg3_393_14583"><stop offset="0%" stop-color="#B0BACC" stop-opacity="1"/><stop offset="100%" stop-color="#969EAE" stop-opacity="1"/></linearGradient><linearGradient x1="0.5000815391540527" y1="0.03437094762921333" x2="0.5000815391540527" y2="0.5959792733192444" id="master_svg4_393_14580"><stop offset="0%" stop-color="#B0BACC" stop-opacity="1"/><stop offset="100%" stop-color="#969EAE" stop-opacity="1"/></linearGradient></defs><g clip-path="url(#master_svg0_393_15003)"><g><g><path d="M78.74010009765625,135.00000804138182C106.11880009765625,135.00000804138182,128.31520009765626,112.03590804138183,128.31520009765626,83.60900804138183C128.31520009765626,55.18210804138184,106.02110009765624,32.218008041381836,78.74010009765625,32.218008041381836C51.36140009765625,32.218008041381836,29.16510009765625,55.18210804138184,29.16510009765625,83.60900804138183C29.16510009765625,112.03590804138183,51.36140009765625,135.00000804138182,78.74010009765625,135.00000804138182Z" fill="#EAEEF9" fill-opacity="1"/></g><g><path d="M131.39526809814453,116.77036795654297C133.60902809814453,116.77036795654297,135.40428809814452,114.90895795654296,135.40428809814452,112.62266795654297C135.40428809814452,110.33637795654298,133.60902809814453,108.47496795654297,131.39526809814453,108.47496795654297C129.18149809814454,108.47496795654297,127.38623809814453,110.33637795654298,127.38623809814453,112.62266795654297C127.38623809814453,114.90895795654296,129.18149809814454,116.77036795654297,131.39526809814453,116.77036795654297Z" fill="#EAEEF9" fill-opacity="1"/></g><g><path d="M137.26212384521483,100.58422501220703C138.77382384521485,100.58422501220703,139.99999384521485,99.31968501220703,139.99999384521485,97.75164501220704C139.99999384521485,96.18361501220703,138.77382384521485,94.91907501220703,137.26212384521483,94.91907501220703C135.75043384521484,94.91907501220703,134.52425384521484,96.18361501220703,134.52425384521484,97.75164501220704C134.52425384521484,99.31968501220703,135.75043384521484,100.58422501220703,137.26212384521483,100.58422501220703Z" fill="#EAEEF9" fill-opacity="1"/></g><g><path d="M31.805187962646485,49.82043869628906C33.31688796264648,49.82043869628906,34.543057962646486,48.55589869628906,34.543057962646486,46.98785869628906C34.543057962646486,45.42994869628906,33.31688796264648,44.15528869628906,31.805187962646485,44.15528869628906C30.293497962646484,44.15528869628906,29.067317962646484,45.42994869628906,29.067317962646484,46.98785869628906C29.067317962646484,48.55589869628906,30.293497962646484,49.82043869628906,31.805187962646485,49.82043869628906Z" fill="#EAEEF9" fill-opacity="1"/></g><g><path d="M15.084620000000001,104.44867333984375C17.89289,104.44867333984375,20.1692,102.10167333984376,20.1692,99.18817333984376C20.1692,96.28478333984376,17.89289,93.92767333984375,15.084620000000001,93.92767333984375C12.27634,93.92767333984375,10,96.28478333984376,10,99.18817333984376C10,102.10167333984376,12.27634,104.44867333984375,15.084620000000001,104.44867333984375Z" fill="#EAEEF9" fill-opacity="1"/></g><g><path d="M84.95999213867188,102.24330139160156L73.94298213867188,102.24330139160156C71.38992213867188,102.24330139160156,69.24069213867188,104.68134139160156,69.24069213867188,107.57461139160156L69.24069213867188,113.81640139160156C69.24069213867188,120.20990139160156,73.80902213867188,125.38950139160156,79.45199213867187,125.38950139160156C85.09489213867188,125.38950139160156,89.66229213867187,120.20990139160156,89.66229213867187,113.81640139160156L89.66229213867187,107.57461139160156C89.66229213867187,104.52959139160156,87.51309213867188,102.24330139160156,84.95999213867188,102.24330139160156Z" fill="#FFFFFF" fill-opacity="1"/></g><g filter="url(#master_svg1_393_14589)"><path d="M83.98218951416015,42.42539416320801C94.76248951416017,45.005064163208004,102.79228951416016,54.98986416320801,102.79228951416016,66.927164163208L102.79228951416016,70.123964163208C102.79228951416016,97.08396416320801,122.40818951416016,114.726864163208,122.40818951416016,114.726864163208L34.405189514160156,114.726864163208C34.405189514160156,114.726864163208,54.15498951416016,97.08396416320801,54.15498951416016,70.123964163208L54.15498951416016,66.927164163208C54.15498951416016,54.98986416320801,62.18478951416016,45.005064163208004,72.96518951416016,42.42539416320801L72.96518951416016,41.363184163208004C72.96518951416016,38.16641416320801,75.38328951416015,35.65756416320801,78.47418951416016,35.65756416320801C81.56408951416016,35.65756416320801,83.98218951416015,38.16641416320801,83.98218951416015,41.363184163208004L83.98218951416015,42.42539416320801Z" fill="url(#master_svg2_393_14591)" fill-opacity="1"/></g><g><path d="M68.26287747314453,81.1001580493164C64.90409747314453,81.1001580493164,62.082137473144535,78.8745580493164,61.00752207314453,75.67779804931641C60.73862447314453,74.9898880493164,61.14246047314453,74.29186004931641,61.81421647314453,74.0187187493164C62.48597747314453,73.73546104931641,63.15772747314453,74.1502310493164,63.42564747314453,74.8482580493164C64.09740747314453,76.93222804931641,66.11364747314452,78.4597880493164,68.26287747314453,78.4597880493164C70.41210747314453,78.4597880493164,72.42834747314453,77.07384804931641,73.10014747314453,74.8482580493164C73.36804747314453,74.1502310493164,74.03974747314453,73.73546104931641,74.71154747314453,74.0187187493164C75.38334747314454,74.29186004931641,75.78714747314453,74.9898880493164,75.51824747314453,75.67779804931641C74.44364747314454,79.01618804931641,71.62164747314453,81.1001580493164,68.26287747314453,81.1001580493164Z" fill="#ADB6C8" fill-opacity="1"/></g><g><path d="M88.55049801757812,81.1001580493164C85.19171801757813,81.1001580493164,82.36975801757812,78.8745580493164,81.29514261757812,75.67779804931641C81.02624501757812,74.9898880493164,81.43008101757812,74.29186004931641,82.10183701757812,74.0187187493164C82.77359801757812,73.73546104931641,83.44534801757813,74.1502310493164,83.71326801757813,74.8482580493164C84.38600801757812,76.93222804931641,86.40126801757812,78.4597880493164,88.55049801757812,78.4597880493164C90.70070801757812,78.4597880493164,92.71596801757812,77.07384804931641,93.38776801757813,74.8482580493164C93.65566801757812,74.1502310493164,94.32736801757812,73.73546104931641,94.99916801757813,74.0187187493164C95.67096801757813,74.29186004931641,96.07476801757812,74.9898880493164,95.80586801757812,75.67779804931641C94.73126801757813,79.01618804931641,91.90926801757813,81.1001580493164,88.55049801757812,81.1001580493164Z" fill="#ADB6C8" fill-opacity="1"/></g><g><path d="M78.47416078125,98.11584292724609C80.18044078125,98.11584292724609,81.56404078125,96.67932292724609,81.56404078125,94.91907292724609C81.56404078125,93.1588329272461,80.18044078125,91.7223129272461,78.47416078125,91.7223129272461C76.76690078125,91.7223129272461,75.38330078125,93.1588329272461,75.38330078125,94.91907292724609C75.38330078125,96.67932292724609,76.76690078125,98.11584292724609,78.47416078125,98.11584292724609Z" fill="#ADB6C8" fill-opacity="1"/></g><g><path d="M95.03242284472657,19.7041L95.03242284472657,15L112.60369084472656,15L112.60369084472656,19.7041L100.61377084472656,34.6763L112.80999084472657,34.6763L112.80999084472657,39.3804L94.41249084472656,39.3804L94.41249084472656,34.6763L106.40239084472657,19.7041L95.03242284472657,19.7041L95.03242284472657,19.7041Z" fill="url(#master_svg3_393_14583)" fill-opacity="1"/></g><g><path d="M109.50304576269531,54.979769066162106L109.50304576269531,51.99544906616211L120.87203176269531,51.99544906616211L120.87203176269531,54.979769066162106L113.22362176269532,64.61054906616211L121.07933176269532,64.61054906616211L121.07933176269532,67.59484906616211L109.08943176269531,67.59484906616211L109.08943176269531,64.61054906616211L116.7378717626953,54.979769066162106L109.50304576269531,54.979769066162106Z" fill="url(#master_svg4_393_14580)" fill-opacity="1"/></g></g></g></svg>