<svg xmlns="http://www.w3.org/2000/svg" xmlns:xlink="http://www.w3.org/1999/xlink" fill="none" version="1.1" width="400" height="400" viewBox="0 0 400 400"><defs><clipPath id="master_svg0_378_12732"><rect x="0" y="0" width="400" height="400" rx="0"/></clipPath></defs><g clip-path="url(#master_svg0_378_12732)"><g><g><path d="M268.56669999999997,211.5333564941406L276.033,202.66665649414062L286,202.66665649414062L289.933,201.8666564941406L293.067,199.73335649414062L295.2,196.59995649414063L296,192.66665649414062L296,132.66665649414062L295.2,128.7333264941406L293.067,125.59998649414062L289.933,123.46665549414062L286,122.66665649414062L186,122.66665649414062L182.06667,123.46665549414062L178.93334,125.59998649414062L176.800006,128.7333264941406L176,132.66665649414062L176,182.66665649414062L219.3333,182.66665649414062L223.26670000000001,183.46665649414064L226.4,185.59995649414063L228.5333,188.73335649414062L229.3333,192.66665649414062L229.3333,202.66665649414062L250.9333,202.66665649414062L258.3667,211.5333564941406L259.2,212.3666564941406L261.5333,213.63335649414063L264.06669999999997,213.8999564941406L266.5,213.19995649414062L268.56669999999997,211.5333564941406Z" fill-rule="evenodd" fill="currentColor" fill-opacity="0.10000000149011612"/></g><g><path d="M303.6663129882813,78.33336412353516L312.6663129882813,78.33336412353516L314.70031298828127,79.19996412353515L315.33331298828125,80.99996412353515L314.70031298828127,82.79996412353515L312.6663129882813,83.66666412353516L303.6663129882813,83.66666412353516L303.6663129882813,92.66666412353516L302.80031298828123,94.69996412353515L301.0003129882812,95.33336412353515L299.2003129882812,94.69996412353515L298.33331298828125,92.66666412353516L298.33331298828125,83.66666412353516L289.33331298828125,83.66666412353516L287.30031298828123,82.79996412353515L286.6663129882812,80.99996412353515L287.30031298828123,79.19996412353515L289.33331298828125,78.33336412353516L298.33331298828125,78.33336412353516L298.33331298828125,69.33333412353515L299.2003129882812,67.29999912353516L301.0003129882812,66.66666412353516L302.80031298828123,67.29999912353516L303.6663129882813,69.33333412353515L303.6663129882813,78.33336412353516ZM119.73331298828126,95.99996412353516L121.00001298828126,95.49996412353516L122.10001298828125,95.99996412353516L122.60001298828125,97.06666412353516L122.10001298828125,98.36666412353516L119.75001298828126,100.71666412353515L122.10001298828125,103.06666412353516L122.60001298828125,104.33336412353515L122.10001298828125,105.43336412353516L121.00001298828126,105.93336412353516L119.73331298828126,105.43336412353516L117.36661298828125,103.06666412353516L115.03331298828125,105.43336412353516L113.73331298828126,105.93336412353516L112.66671298828125,105.43336412353516L112.16661298828124,104.33336412353515L112.66671298828125,103.06666412353516L115.01671298828126,100.71666412353515L112.66671298828125,98.36666412353516L112.16661298828124,97.06666412353516L112.66671298828125,95.99996412353516L113.73331298828126,95.49996412353516L115.03331298828125,95.99996412353516L117.36661298828125,98.36666412353516L119.73331298828126,95.99996412353516ZM286.26831298828125,205.33366412353516L277.2743129882813,205.33366412353516L270.4403129882812,213.44766412353516L267.75431298828124,215.61366412353516L264.30431298828125,216.60666412353515L260.72731298828126,216.22966412353514L257.58731298828127,214.52566412353517L256.39831298828125,213.33666412353514L249.68931298828124,205.33366412353516L232.00031298828125,205.33366412353516L232.00031298828125,252.93466412353516L231.03931298828124,257.65766412353514L228.31931298828124,261.65266412353515L224.32431298828126,264.3726641235352L219.60131298828125,265.3336641235352L157.27431298828125,265.3336641235352L150.44031298828125,273.44766412353516L147.75431298828124,275.61366412353516L144.30431298828125,276.60666412353515L140.72691298828124,276.22966412353514L137.58781298828126,274.5256641235352L136.39831298828125,273.3366641235351L129.68911298828124,265.3336641235352L119.06491298828125,265.3336641235352L114.34271298828125,264.3726641235352L110.34731298828125,261.65266412353515L107.62711298828125,257.65766412353514L106.66661298828126,252.93466412353516L106.66661298828126,192.39866412353516L107.62711298828125,187.67566412353517L110.34731298828125,183.68066412353517L114.34271298828125,180.96066412353514L119.06491298828125,179.99966412353515L173.33331298828125,179.99966412353515L173.33331298828125,132.39816412353514L174.29331298828126,127.67606412353516L177.01431298828126,123.68066412353517L181.00931298828124,120.96036412353516L185.73131298828125,119.99996412353516L286.26831298828125,119.99996412353516L290.9903129882813,120.96036412353516L294.98631298828127,123.68066412353517L297.70631298828124,127.67606412353516L298.6663129882812,132.39816412353514L298.6663129882812,192.93466412353516L297.70631298828124,197.65766412353517L294.98631298828127,201.65266412353515L290.9903129882813,204.37266412353515L286.26831298828125,205.33366412353516ZM178.66631298828125,179.99966412353515L178.66631298828125,132.93506412353514L179.30631298828126,129.79056412353515L180.85231298828126,127.51926412353515L183.12431298828125,125.97286412353515L186.26831298828125,125.33326412353516L285.7313129882813,125.33326412353516L288.87631298828126,125.97286412353515L291.1473129882812,127.51926412353515L292.69331298828126,129.79056412353515L293.33331298828125,132.93506412353514L293.33331298828125,192.39866412353516L292.69331298828126,195.54266412353516L291.1473129882812,197.81366412353515L288.87631298828126,199.36066412353514L285.7313129882813,199.99966412353515L274.79231298828125,199.99966412353515L266.6923129882813,209.61866412353515L265.2453129882813,210.78566412353516L263.82931298828123,211.19366412353514L262.3393129882812,211.03666412353516L260.8123129882813,210.20766412353515L260.33531298828126,209.73066412353515L252.17731298828124,199.99966412353515L232.00031298828125,199.99966412353515L232.00031298828125,192.39866412353516L231.03931298828124,187.67566412353517L228.31931298828124,183.68066412353517L224.32431298828126,180.96066412353514L219.60131298828125,179.99966412353515L178.66631298828125,179.99966412353515ZM209.33331298828125,171.03466412353515L212.26831298828125,170.43266412353518L212.59631298828126,170.36566412353517L215.23231298828125,168.56566412353516L217.03231298828126,165.92956412353516L217.70131298828124,162.66666412353516L217.03231298828126,159.40366412353515L215.23231298828125,156.76736412353517L212.59631298828126,154.96796412353515L209.33331298828125,154.29856412353516L206.07031298828124,154.96796412353515L203.43431298828125,156.76736412353517L201.63431298828124,159.40366412353515L200.96531298828126,162.66666412353516L201.63431298828124,165.92956412353516L203.43431298828125,168.56566412353516L206.07031298828124,170.36566412353517L209.33331298828125,171.03466412353515ZM236.00031298828125,171.03466412353515L238.93531298828125,170.43266412353518L239.26331298828126,170.36566412353517L241.89931298828125,168.56566412353516L243.69831298828126,165.92956412353516L244.36831298828125,162.66666412353516L243.69831298828126,159.40366412353515L241.89931298828125,156.76736412353517L239.26331298828126,154.96796412353515L236.00031298828125,154.29856412353516L232.73731298828125,154.96796412353515L230.10031298828125,156.76736412353517L228.30131298828124,159.40366412353515L227.63231298828126,162.66666412353516L228.30131298828124,165.92956412353516L230.10031298828125,168.56566412353516L232.73731298828125,170.36566412353517L236.00031298828125,171.03466412353515ZM262.6663129882812,171.03466412353515L265.6013129882813,170.43266412353518L265.92931298828125,170.36566412353517L268.56631298828125,168.56566412353516L270.3653129882813,165.92956412353516L271.0343129882813,162.66666412353516L270.3653129882813,159.40366412353515L268.56631298828125,156.76736412353517L265.92931298828125,154.96796412353515L262.6663129882812,154.29856412353516L259.40331298828124,154.96796412353515L256.7673129882812,156.76736412353517L254.96831298828124,159.40366412353515L254.29831298828125,162.66666412353516L254.96831298828124,165.92956412353516L256.7673129882812,168.56566412353516L259.40331298828124,170.36566412353517L262.6663129882812,171.03466412353515ZM56.66661298828125,162.66666412353516L57.53331298828125,160.63336412353516L59.33331298828125,159.99996412353516L61.13331298828125,160.63336412353516L62.00001298828125,162.66666412353516L62.00001298828125,169.99966412353515L69.33331298828125,169.99966412353515L71.36661298828125,170.86666412353514L72.00001298828124,172.66666412353516L71.36661298828125,174.46666412353517L69.33331298828125,175.33366412353516L62.00001298828125,175.33366412353516L62.00001298828125,182.66666412353516L61.13331298828125,184.69966412353517L59.33331298828125,185.33366412353516L57.53331298828125,184.69966412353517L56.66661298828125,182.66666412353516L56.66661298828125,175.33366412353516L49.33331298828125,175.33366412353516L47.29998298828125,174.46666412353517L46.666642988281254,172.66666412353516L47.29998298828125,170.86666412353514L49.33331298828125,169.99966412353515L56.66661298828125,169.99966412353515L56.66661298828125,162.66666412353516ZM219.06531298828125,259.9996641235351L154.79231298828125,259.9996641235351L146.69231298828123,269.61866412353515L145.24531298828126,270.7856641235352L143.82931298828123,271.19366412353514L142.33961298828126,271.03666412353516L140.81211298828126,270.20766412353515L140.33501298828125,269.7306641235351L132.17751298828125,259.9996641235351L119.60171298828125,259.9996641235351L116.45721298828126,259.3606641235351L114.18591298828125,257.81366412353515L112.63951298828125,255.54266412353516L112.00001298828126,252.39866412353516L112.00001298828126,192.93466412353516L112.63951298828125,189.79066412353515L114.18591298828125,187.51966412353516L116.45721298828126,185.97266412353514L119.60171298828125,185.33366412353516L219.06531298828125,185.33366412353516L222.20931298828125,185.97266412353514L224.48031298828124,187.51966412353516L226.02731298828124,189.79066412353515L226.66631298828125,192.93466412353516L226.66631298828125,252.39866412353516L226.02731298828124,255.54266412353516L224.48031298828124,257.81366412353515L222.20931298828125,259.3606641235351L219.06531298828125,259.9996641235351ZM142.66671298828123,231.03466412353515L145.60131298828125,230.43266412353515L145.92931298828125,230.36566412353517L148.56631298828125,228.56566412353516L150.36531298828123,225.92966412353516L151.03431298828124,222.66666412353516L150.36531298828123,219.40366412353515L148.56631298828125,216.76766412353516L145.92931298828125,214.96766412353514L142.66671298828123,214.29866412353516L139.40371298828126,214.96766412353514L136.76741298828125,216.76766412353516L134.96801298828126,219.40366412353515L134.29871298828124,222.66666412353516L134.96801298828126,225.92966412353516L136.76741298828125,228.56566412353516L139.40371298828126,230.36566412353517L142.66671298828123,231.03466412353515ZM169.33331298828125,231.03466412353515L172.26831298828125,230.43266412353515L172.59631298828126,230.36566412353517L175.23231298828125,228.56566412353516L177.03231298828126,225.92966412353516L177.70131298828124,222.66666412353516L177.03231298828126,219.40366412353515L175.23231298828125,216.76766412353516L172.59631298828126,214.96766412353514L169.33331298828125,214.29866412353516L166.07031298828124,214.96766412353514L163.43431298828125,216.76766412353516L161.63431298828124,219.40366412353515L160.96531298828126,222.66666412353516L161.63431298828124,225.92966412353516L163.43431298828125,228.56566412353516L166.07031298828124,230.36566412353517L169.33331298828125,231.03466412353515ZM196.00031298828125,231.03466412353515L198.93531298828125,230.43266412353515L199.26331298828126,230.36566412353517L201.89931298828125,228.56566412353516L203.69831298828126,225.92966412353516L204.36831298828125,222.66666412353516L203.69831298828126,219.40366412353515L201.89931298828125,216.76766412353516L199.26331298828126,214.96766412353514L196.00031298828125,214.29866412353516L192.73731298828125,214.96766412353514L190.10031298828125,216.76766412353516L188.30131298828124,219.40366412353515L187.63231298828126,222.66666412353516L188.30131298828124,225.92966412353516L190.10031298828125,228.56566412353516L192.73731298828125,230.36566412353517L196.00031298828125,231.03466412353515ZM310.0003129882812,242.66666412353516L310.86631298828127,240.63366412353517L312.6663129882813,239.99966412353515L314.46631298828123,240.63366412353517L315.33331298828125,242.66666412353516L315.33331298828125,249.99966412353515L322.6663129882813,249.99966412353515L324.70031298828127,250.86666412353514L325.33331298828125,252.66666412353516L324.70031298828127,254.46666412353517L322.6663129882813,255.33366412353516L315.33331298828125,255.33366412353516L315.33331298828125,262.66666412353516L314.46631298828123,264.6996641235352L312.6663129882813,265.3336641235352L310.86631298828127,264.6996641235352L310.0003129882812,262.66666412353516L310.0003129882812,255.33366412353516L302.6663129882813,255.33366412353516L300.63331298828126,254.46666412353517L300.0003129882812,252.66666412353516L300.63331298828126,250.86666412353514L302.6663129882813,249.99966412353515L310.0003129882812,249.99966412353515L310.0003129882812,242.66666412353516ZM90.30001298828125,270.46666412353517L91.60001298828125,269.96666412353517L92.66671298828125,270.46666412353517L93.16671298828125,271.56666412353513L92.66671298828125,272.8336641235352L90.31671298828125,275.18366412353515L92.66671298828125,277.5336641235351L93.16671298828125,278.8336641235352L92.66671298828125,279.89966412353516L91.60001298828125,280.43366412353515L90.30001298828125,279.89966412353516L87.96671298828124,277.5336641235351L85.60001298828125,279.89966412353516L84.33331298828125,280.43366412353515L83.23331298828126,279.89966412353516L82.73331298828126,278.8336641235352L83.23331298828126,277.5336641235351L85.58331298828125,275.18366412353515L83.23331298828126,272.8336641235352L82.73331298828126,271.56666412353513L83.23331298828126,270.46666412353517L84.33331298828125,269.96666412353517L85.60001298828125,270.46666412353517L87.96671298828124,272.8336641235352L90.30001298828125,270.46666412353517ZM45.99997298828125,310.3336641235352L44.09997798828125,309.56666412353513L43.33331298828125,307.66666412353516L44.09997798828125,305.7666641235352L45.99997298828125,304.9996641235351L279.33331298828125,304.9996641235351L281.2333129882812,305.7666641235352L282.0003129882813,307.66666412353516L281.2333129882812,309.56666412353513L279.33331298828125,310.3336641235352L45.99997298828125,310.3336641235352ZM292.6663129882812,310.3336641235352L290.76631298828124,309.56666412353513L290.0003129882813,307.66666412353516L290.76631298828124,305.7666641235352L292.6663129882812,304.9996641235351L301.0003129882812,304.9996641235351L302.90031298828126,305.7666641235352L303.6663129882813,307.66666412353516L302.90031298828126,309.56666412353513L301.0003129882812,310.3336641235352L292.6663129882812,310.3336641235352ZM322.6663129882813,310.3336641235352L320.76631298828124,309.56666412353513L320.0003129882812,307.66666412353516L320.76631298828124,305.7666641235352L322.6663129882813,304.9996641235351L352.6663129882813,304.9996641235351L354.56631298828125,305.7666641235352L355.33331298828125,307.66666412353516L354.56631298828125,309.56666412353513L352.6663129882813,310.3336641235352L322.6663129882813,310.3336641235352ZM122.66661298828124,335.33366412353513L120.76661298828125,334.56666412353513L120.00001298828126,332.66666412353516L120.76661298828125,330.7666641235352L122.66661298828124,329.9996641235352L146.00031298828125,329.9996641235352L147.90031298828126,330.7666641235352L148.66631298828125,332.66666412353516L147.90031298828126,334.56666412353513L146.00031298828125,335.33366412353513L122.66661298828124,335.33366412353513ZM161.00031298828125,335.33366412353513L159.10031298828125,334.56666412353513L158.33331298828125,332.66666412353516L159.10031298828125,330.7666641235352L161.00031298828125,329.9996641235352L262.6663129882812,329.9996641235352L264.56631298828125,330.7666641235352L265.33331298828125,332.66666412353516L264.56631298828125,334.56666412353513L262.6663129882812,335.33366412353513L161.00031298828125,335.33366412353513Z" fill-rule="evenodd" fill="currentColor" fill-opacity="1"/></g></g></g></svg>
