<svg xmlns="http://www.w3.org/2000/svg" xmlns:xlink="http://www.w3.org/1999/xlink" fill="none" version="1.1" width="150" height="150" viewBox="0 0 150 150"><defs><clipPath id="master_svg0_393_15009"><rect x="0" y="0" width="150" height="150" rx="0"/></clipPath><linearGradient x1="0.5000523924827576" y1="0.03470761328935623" x2="0.5000523924827576" y2="0.5959192514419556" id="master_svg1_393_14570"><stop offset="0%" stop-color="#B0BACC" stop-opacity="1"/><stop offset="100%" stop-color="#969EAE" stop-opacity="1"/></linearGradient><linearGradient x1="0.03564760461449623" y1="0.2875029444694519" x2="0.5955621600151062" y2="0.5481148362159729" id="master_svg2_393_14524"><stop offset="0%" stop-color="#E3E7EE" stop-opacity="1"/><stop offset="100%" stop-color="#D1D6DF" stop-opacity="1"/></linearGradient><linearGradient x1="0.5000710487365723" y1="0.03474793583154678" x2="0.5000710487365723" y2="0.5959840416908264" id="master_svg3_393_14537"><stop offset="0%" stop-color="#BDC4D1" stop-opacity="0.5299999713897705"/><stop offset="100%" stop-color="#5D7CB8" stop-opacity="0"/></linearGradient><linearGradient x1="0.499978631734848" y1="0" x2="0.499978631734848" y2="1" id="master_svg4_393_14546"><stop offset="0%" stop-color="#B6BFD7" stop-opacity="1"/><stop offset="100%" stop-color="#838DA7" stop-opacity="0"/></linearGradient><linearGradient x1="0.481796532869339" y1="0.11343783140182495" x2="0.5076183080673218" y2="0.6220174431800842" id="master_svg5_393_14543"><stop offset="0%" stop-color="#B0BACC" stop-opacity="1"/><stop offset="100%" stop-color="#969EAE" stop-opacity="1"/></linearGradient><linearGradient x1="0.5001062750816345" y1="0.03550295904278755" x2="0.5001062750816345" y2="0.5946745276451111" id="master_svg6_393_14564"><stop offset="0%" stop-color="#B0BACC" stop-opacity="1"/><stop offset="100%" stop-color="#969EAE" stop-opacity="1"/></linearGradient><linearGradient x1="0.03481077402830124" y1="0.4018290936946869" x2="0.5958765745162964" y2="0.5214396119117737" id="master_svg7_393_14506"><stop offset="0%" stop-color="#B0BACC" stop-opacity="1"/><stop offset="100%" stop-color="#969EAE" stop-opacity="1"/></linearGradient><linearGradient x1="0.5226361751556396" y1="0.15753424167633057" x2="0.5021777153015137" y2="0.5707762837409973" id="master_svg8_393_14540"><stop offset="0%" stop-color="#B0BACC" stop-opacity="1"/><stop offset="100%" stop-color="#969EAE" stop-opacity="1"/></linearGradient><linearGradient x1="0.4999542832374573" y1="0.8423857092857361" x2="0.5735160112380981" y2="0.17896339297294617" id="master_svg9_393_14554"><stop offset="0%" stop-color="#B0BACC" stop-opacity="1"/><stop offset="100%" stop-color="#969EAE" stop-opacity="1"/></linearGradient><linearGradient x1="0.5000724792480469" y1="0.03479280695319176" x2="0.5000724792480469" y2="0.5957779288291931" id="master_svga_393_14528"><stop offset="0%" stop-color="#D6DCE6" stop-opacity="1"/><stop offset="100%" stop-color="#C4CBDA" stop-opacity="1"/></linearGradient><linearGradient x1="0.500083863735199" y1="0.03466465696692467" x2="0.500083863735199" y2="0.5960813760757446" id="master_svgb_393_14514"><stop offset="0%" stop-color="#D6DCE6" stop-opacity="1"/><stop offset="100%" stop-color="#C4CBDA" stop-opacity="1"/></linearGradient><linearGradient x1="0.5001933574676514" y1="0.03479280695319176" x2="0.5001933574676514" y2="0.5957779288291931" id="master_svgc_393_14509"><stop offset="0%" stop-color="#D6DCE6" stop-opacity="1"/><stop offset="100%" stop-color="#C4CBDA" stop-opacity="1"/></linearGradient><linearGradient x1="0.5000724792480469" y1="0.03479280695319176" x2="0.5000724792480469" y2="0.5957779288291931" id="master_svgd_393_14559"><stop offset="0%" stop-color="#EAEEF5" stop-opacity="1"/><stop offset="100%" stop-color="#D4DAE4" stop-opacity="1"/></linearGradient><linearGradient x1="0.5001051425933838" y1="0.03466465696692467" x2="0.5001051425933838" y2="0.5960813760757446" id="master_svge_393_14519"><stop offset="0%" stop-color="#EAEEF5" stop-opacity="1"/><stop offset="100%" stop-color="#D4DAE4" stop-opacity="1"/></linearGradient><linearGradient x1="0.5001933574676514" y1="0.03479280695319176" x2="0.5001933574676514" y2="0.5957779288291931" id="master_svgf_393_14573"><stop offset="0%" stop-color="#EAEEF5" stop-opacity="1"/><stop offset="100%" stop-color="#D4DAE4" stop-opacity="1"/></linearGradient></defs><g clip-path="url(#master_svg0_393_15009)"><g><g><path d="M110.79836975097656,39.1659C110.79836975097656,51.8608,100.74716975097655,62.3506,88.24456975097657,63.089C87.75406975097656,63.089,87.26356975097656,63.089,86.77316975097656,63.089C82.60656975097656,63.089,78.43906975097656,61.865,75.00676975097656,59.9128C67.65260975097657,55.7654,62.75086975097656,47.9461,62.75086975097656,38.923100000000005C62.75086975097656,32.8134,64.95649975097656,27.1993,68.87829975097657,23.05193C73.29156975097656,18.166150000000002,79.66476975097656,15,86.77316975097656,15C96.08406975097657,15,104.18146975097656,20.37132,108.09926975097656,28.180500000000002C109.81136975097655,31.5995,110.79836975097656,35.2613,110.79836975097656,39.1659Z" fill="url(#master_svg1_393_14570)" fill-opacity="1"/></g><g style="opacity:0.10000000149011612;"><path d="M110.58687149047852,39.16589891357422C110.58687149047852,51.860798913574214,100.5356714904785,62.35059891357422,88.03407149047851,63.088998913574216C83.37607149047852,62.35059891357422,78.9637714904785,61.12659891357422,74.79627149047852,60.15549891357422C67.44212149047851,56.00819891357422,62.539371490478516,48.198998913574215,62.539371490478516,39.16589891357422C62.539371490478516,33.056138913574216,64.74601149047851,27.44204891357422,68.66781149047851,23.294698813574218C76.75717149047851,23.051926913574217,86.07217149047852,23.78024191357422,95.63087149047851,25.489758913574217C100.04217149047852,26.22818891357422,104.21177149047853,27.19927891357422,108.13957149047852,28.18047891357422C109.60997149047851,31.59950891357422,110.58687149047852,35.26129891357422,110.58687149047852,39.16589891357422Z" fill="#000000" fill-opacity="1"/></g><g><path d="M139.89489698791505,55.32033885345459C141.74789698791506,44.96203885345459,118.93609698791504,32.26713885345459,88.94649698791504,26.94638885345459C58.95699698791504,21.63575885345459,33.14604698791504,25.72241885345459,31.29593398791504,36.07053885345459C29.445816987915038,46.42883885345459,52.25749698791504,59.12373885345459,82.24599698791505,64.44453885345459C112.23859698791505,69.75513885345458,138.04189698791504,65.66843885345459,139.89489698791505,55.32033885345459Z" fill="url(#master_svg2_393_14524)" fill-opacity="1"/></g><g><path d="M81.30131760253906,32.86394442687988C81.43731760253907,31.113964426879882,78.70291760253906,29.475259426879884,75.19406760253906,29.202141126879884C71.68418760253907,28.939138426879882,68.72823960253906,30.13276542687988,68.59227610253906,31.88274442687988C68.45631260253906,33.62260442687988,71.19068760253906,35.261314426879885,74.69955760253906,35.53443442687988C78.20943760253905,35.80755442687988,81.16441760253906,34.61392442687988,81.30131760253906,32.86394442687988Z" fill="#FFFFFF" fill-opacity="1"/></g><g><path d="M50.45673537963867,37.34510210418701C53.83069537963867,36.35379210418701,56.16019537963867,34.178962104187015,55.659595379638674,32.49979210418701C55.158095379638674,30.82061920418701,52.01679537963867,30.264267104187013,48.64288537963867,31.26570010418701C45.267965379638675,32.26713210418701,42.93945837963867,34.43185210418701,43.44000617963867,36.111022104187015C43.94055337963867,37.790192104187014,47.08181537963867,38.34654210418701,50.45673537963867,37.34510210418701Z" fill="#FFFFFF" fill-opacity="1"/></g><g><path d="M106.09503996582032,39.28728120666504C106.39723996582032,37.55753120666504,103.83903996582032,35.66593820666504,100.37452996582032,35.04889320666504C96.90997996582031,34.43184920666504,93.8482759658203,35.33212720666504,93.54613506582031,37.06187120666504C93.23392196582031,38.78151120666504,95.79204996582031,40.68322120666504,99.25660996582032,41.30026120666504C102.7211599658203,41.90719120666504,105.78283996582032,41.00691120666504,106.09503996582032,39.28728120666504Z" fill="#FFFFFF" fill-opacity="1"/></g><g><path d="M124.6969242553711,52.04290562744141C125.5127242553711,50.485125627441406,123.62932425537109,47.92590562744141,120.4971442553711,46.317545627441405C117.3649442553711,44.709180627441405,114.1823922553711,44.66871862744141,113.3766822553711,46.226505627441405C112.5609002553711,47.784285627441406,114.44424425537109,50.3536256274414,117.57644425537109,51.96198562744141C120.7086442553711,53.570345627441405,123.8912242553711,53.600695627441404,124.6969242553711,52.04290562744141Z" fill="#FFFFFF" fill-opacity="1"/></g><g><path d="M82.53912673034668,47.90567483203125L59.49682673034668,47.66290283203125L26.68122673034668,108.96270283203125L118.78502673034669,118.69380283203125L108.52222673034667,56.20037283203125L82.53912673034668,47.90567483203125Z" fill="url(#master_svg3_393_14537)" fill-opacity="1"/></g><g style="opacity:0.5;"><path d="M130.8306802635193,134.99996520996095L12.917680263519287,134.99996520996095C16.104260263519286,132.13736520996093,20.761270263519286,129.26456520996095,26.15448026351929,127.12004520996094C29.096380263519286,126.03768520996094,32.52768026351929,124.60128520996093,35.959980263519284,123.89320520996094C46.254980263519286,121.02040520996094,58.75758026351929,119.22996520996094,71.99438026351929,119.22996520996094C87.92828026351928,119.22996520996094,102.64058026351928,121.73860520996094,113.91068026351928,125.68364520996094C117.8386802635193,127.12004520996094,121.26268026351929,128.54632520996094,124.20368026351929,130.34686520996092C126.90268026351929,131.77316520996095,129.10768026351928,133.20956520996094,130.8306802635193,134.99996520996095Z" fill="url(#master_svg4_393_14546)" fill-opacity="1"/></g><g style="opacity:0.30000001192092896;"><path d="M37.5925734375,125.62295084960938C37.7466734375,127.07958084960937,35.2197434375,128.81944084960938,32.2950134375,129.13302084960938C29.3702834375,129.44660084960938,26.8041004375,128.49574084960938,26.4052734375,127.06946084960937C29.2534634375,126.02756084960937,32.5629134375,124.69232184960937,35.9237334375,123.84262084960938C36.9499734375,124.21689384960938,37.514973437500004,124.89463084960937,37.5925734375,125.62295084960938Z" fill="url(#master_svg5_393_14543)" fill-opacity="1"/></g><g style="opacity:0.30000001192092896;"><path d="M58.2670933996582,124.6012809765625C62.192903399658206,124.6012809765625,65.3755033996582,123.8325109765625,65.3755033996582,122.8917709765625C65.3755033996582,121.9409119765625,62.192903399658206,121.1822509765625,58.2670933996582,121.1822509765625C54.340263399658205,121.1822509765625,51.1577033996582,121.9409119765625,51.1577033996582,122.8917709765625C51.1577033996582,123.8325109765625,54.340263399658205,124.6012809765625,58.2670933996582,124.6012809765625Z" fill="url(#master_svg6_393_14564)" fill-opacity="1"/></g><g style="opacity:0.30000001192092896;"><path d="M96.58769826660156,124.45966420410156C96.66829826660157,123.24580420410156,93.55619826660157,122.05217920410156,89.63843826660157,121.79929180410156C85.72066826660156,121.53628920410156,82.47970006660157,122.31518120410156,82.39912906660156,123.51892420410157C82.31855806660157,124.73278420410156,85.42859826660157,125.92641420410156,89.34636826660156,126.17929420410157C93.26409826660156,126.44230420410156,96.50709826660156,125.66340420410157,96.58769826660156,124.45966420410156Z" fill="url(#master_svg7_393_14506)" fill-opacity="1"/></g><g style="opacity:0.30000001192092896;"><path d="M123.57900494384765,129.96248612792968C122.60205494384766,129.8411061279297,121.43377494384765,129.8815661279297,119.99357494384766,129.4668261279297C116.12616494384766,128.7789761279297,113.10474694384766,127.20096612792969,113.24574587384765,125.98710312792969C113.26588864384766,125.74433112792968,113.26588864384766,125.74433112792968,113.53781594384766,125.53190612792969C117.32465494384766,126.94807612792968,120.76906494384765,128.32377612792968,123.57900494384765,129.96248612792968Z" fill="url(#master_svg8_393_14540)" fill-opacity="1"/></g><g><path d="M108.38128703613282,56.837640069580075C109.2070870361328,52.18453006958008,98.8637870361328,46.46928006958008,85.2644870361328,44.06179006958008C71.66908703613281,41.65431006958008,59.975201036132816,43.46497806958008,59.145318836132816,48.107990069580076C58.31443003613281,52.75099006958008,68.66277703613281,58.476340069580075,82.25808703613282,60.883840069580074C95.85248703613281,63.29134006958007,107.54538703613281,61.480640069580076,108.38128703613282,56.837640069580075Z" fill="url(#master_svg9_393_14554)" fill-opacity="1"/></g><g><path d="M20.350360312576292,79.33448791503906C20.350360312576292,79.33448791503906,11.882340312576293,81.48908791503906,14.448529312576294,83.21883791503906C17.013710312576293,84.85754791503906,23.086750312576292,87.71010791503906,28.81734031257629,85.80839791503907C34.547940312576294,83.90668791503906,28.81734031257629,81.23619791503906,28.902940312576295,81.23619791503906C28.988540312576294,81.23619791503906,20.350360312576292,79.33448791503906,20.350360312576292,79.33448791503906Z" fill="#CED7E2" fill-opacity="1"/></g><g><path d="M10,78.6365196105957C13.07983,79.5873796105957,22.5731,78.03970961059571,28.6462,74.0643196105957C33.436099999999996,80.02233961059571,35.2318,81.5801296105957,36.943,81.7520896105957C34.2912,84.4226196105957,25.4817,88.7419196105957,20.5206,83.1277896105957C14.70434,86.8503196105957,10,78.6365196105957,10,78.6365196105957Z" fill="#E9EEF8" fill-opacity="1"/></g><g><path d="M111.704833984375,86.41532466674805C114.957893984375,86.58729466674805,123.770333984375,82.61190466674805,128.554233984375,77.26081466674805C134.717933984375,81.83301466674804,136.762433984375,82.87490466674805,138.565233984375,82.61190466674805C136.591233984375,85.89944466674805,130.608833984375,93.06121466674804,122.138833984375,93.58721466674805C115.985173984375,89.95571466674805,111.704833984375,86.41532466674805,111.704833984375,86.41532466674805Z" fill="#E9EEF8" fill-opacity="1"/></g><g><path d="M83.53818223266602,86.52663884887696C82.89468223266601,83.31993884887694,76.86893223266601,75.73333884887695,70.51288223266602,72.41553884887695C73.39229223266602,65.28407884887696,73.88075223266601,63.02832884887695,73.18381223266601,61.33903884887695C76.83871223266601,62.44162884887695,85.24228223266601,66.47770884887696,87.85178223266601,74.59033884887695C85.88788223266602,81.47893884887695,83.53818223266602,86.52663884887696,83.53818223266602,86.52663884887696Z" fill="#FFFFFF" fill-opacity="1"/></g><g><path d="M55.08052972717285,120.27185922851562L55.08052972717285,115.39615922851563L52.138629727172855,115.39615922851563L52.138629727172855,99.03945922851562L45.51972972717285,99.03945922851562L34.24382972717285,114.65775922851563L34.24382972717285,120.27185922851562L46.50072972717285,120.27185922851562L46.50072972717285,124.91485922851562L52.138629727172855,124.91485922851562L52.138629727172855,120.27185922851562L55.08052972717285,120.27185922851562ZM39.63707972717285,115.39615922851563L46.74542972717285,105.38186922851563L46.74542972717285,115.39615922851563L39.63707972717285,115.39615922851563Z" fill-rule="evenodd" fill="url(#master_svga_393_14528)" fill-opacity="1"/></g><g><path d="M61.69841003417969,111.9771093017578C61.69841003417969,120.27180930175781,66.84690003417968,125.4004093017578,72.72961003417969,125.4004093017578C78.85801003417969,125.4004093017578,84.00551003417968,120.02910930175781,83.76081003417968,111.9771093017578C83.76081003417968,103.6723493017578,78.61331003417969,98.55390930175781,72.72961003417969,98.55390930175781C66.84690003417968,98.55390930175781,61.69841003417969,103.6723493017578,61.69841003417969,111.9771093017578ZM78.36761003417969,111.73440930175781C78.36761003417969,117.59120930175781,75.42671003417969,120.27180930175781,72.72961003417969,120.27180930175781C70.03351003417968,120.27180930175781,67.33639003417969,117.59120930175781,67.09166003417968,111.73440930175781C67.09166003417968,105.86739930175781,70.03351003417968,103.18679930175782,72.72961003417969,103.18679930175782C75.67151003417969,103.18679930175782,78.36761003417969,106.12028930175781,78.36761003417969,111.73440930175781Z" fill-rule="evenodd" fill="url(#master_svgb_393_14514)" fill-opacity="1"/></g><g><path d="M111.70485588378907,120.27185922851562L111.70485588378907,115.39615922851563L108.52225588378906,115.39615922851563L108.52225588378906,99.03945922851562L102.14705588378906,99.03945922851562L90.86915588378906,114.65775922851563L90.86915588378906,120.27185922851562L103.12405588378905,120.27185922851562L103.12405588378905,124.91485922851562L108.76395588378907,124.91485922851562L108.76395588378907,120.27185922851562L111.70485588378907,120.27185922851562ZM96.01362588378906,115.39615922851563L103.12405588378905,105.38186922851563L103.12405588378905,115.39615922851563L96.01362588378906,115.39615922851563Z" fill-rule="evenodd" fill="url(#master_svgc_393_14509)" fill-opacity="1"/></g><g><path d="M52.87388948364258,120.27185922851562L52.87388948364258,115.39615922851563L49.68728948364257,115.39615922851563L49.68728948364257,99.03945922851562L43.314089483642576,99.03945922851562L32.03718948364258,114.65775922851563L32.03718948364258,120.27185922851562L44.29408948364258,120.27185922851562L44.29408948364258,124.91485922851562L49.93198948364258,124.91485922851562L49.93198948364258,120.27185922851562L52.87388948364258,120.27185922851562ZM37.43043948364258,115.39615922851563L44.53978948364258,105.38186922851563L44.53978948364258,115.39615922851563L37.43043948364258,115.39615922851563Z" fill-rule="evenodd" fill="url(#master_svgd_393_14559)" fill-opacity="1"/></g><g><path d="M59.49277877807617,111.9771093017578C59.49277877807617,120.27180930175781,64.64025877807617,125.4004093017578,70.52397877807617,125.4004093017578C76.65237877807617,125.4004093017578,81.79987877807616,120.02910930175781,81.55417877807616,111.9771093017578C81.55417877807616,103.6723493017578,76.40667877807617,98.55390930175781,70.52397877807617,98.55390930175781C64.64025877807617,98.55390930175781,59.49277877807617,103.6723493017578,59.49277877807617,111.9771093017578ZM76.16197877807618,111.73440930175781C76.16197877807618,117.59120930175781,73.22007877807617,120.27180930175781,70.52397877807617,120.27180930175781C67.82686877807618,120.27180930175781,65.13075877807617,117.59120930175781,64.88602877807617,111.73440930175781C64.88602877807617,105.86739930175781,67.82686877807618,103.18679930175782,70.52397877807617,103.18679930175782C73.46487877807617,103.18679930175782,76.16197877807618,106.12028930175781,76.16197877807618,111.73440930175781Z" fill-rule="evenodd" fill="url(#master_svge_393_14519)" fill-opacity="1"/></g><g><path d="M109.49922844238282,120.27185922851562L109.49922844238282,115.39615922851563L106.31662844238281,115.39615922851563L106.31662844238281,99.03945922851562L99.94142844238281,99.03945922851562L88.66352844238281,114.65775922851563L88.66352844238281,120.27185922851562L100.9184284423828,120.27185922851562L100.9184284423828,124.91485922851562L106.55832844238282,124.91485922851562L106.55832844238282,120.27185922851562L109.49922844238282,120.27185922851562ZM93.80799844238281,115.39615922851563L100.9184284423828,105.38186922851563L100.9184284423828,115.39615922851563L93.80799844238281,115.39615922851563Z" fill-rule="evenodd" fill="url(#master_svgf_393_14573)" fill-opacity="1"/></g></g></g></svg>