<svg xmlns="http://www.w3.org/2000/svg" xmlns:xlink="http://www.w3.org/1999/xlink" fill="none" version="1.1" width="400" height="400" viewBox="0 0 400 400"><defs><clipPath id="master_svg0_378_12678"><rect x="0" y="0" width="400" height="400" rx="0"/></clipPath></defs><g clip-path="url(#master_svg0_378_12678)"><g><g><path d="M273.65735415039063,173.77454960937501L194.84403415039063,141.926149609375L196.3334241503906,136.033349609375L199.96676415039062,129.000049609375L204.5000541503906,123.000049609375L210.0000541503906,118.000009609375L216.26675415039062,113.966679609375L223.0000541503906,111.100019609375L230.23345415039063,109.400014609375L237.66675415039063,108.933349609375L245.13345415039063,109.833351609375L252.73345415039063,112.100019609375L259.8000541503906,115.733349609375L265.7667541503906,120.300049609375L270.8000541503906,125.76664960937501L274.8334541503906,132.066649609375L277.6667541503906,138.766649609375L279.40005415039064,146.033349609375L279.8334541503906,153.433349609375L278.9667541503906,160.900049609375L276.6667541503906,168.500049609375L273.65735415039063,173.77454960937501ZM263.3358541503906,192.60054960937498L192.27057415039062,163.875049609375L191.2667591503906,166.366649609375L190.76675415039062,168.966649609375L191.30008715039062,171.466649609375L192.73342415039062,173.56664960937502L194.93342415039064,175.033349609375L253.66675415039063,198.766649609375L256.3000541503906,199.233349609375L258.7667541503906,198.733349609375L260.86675415039065,197.30004960937498L262.3334541503906,195.06664960937502L263.3358541503906,192.60054960937498Z" fill-rule="evenodd" fill="currentColor" fill-opacity="0.10000000149011612"/></g><g><path d="M313.333,77.6667L304.333,77.6667L304.333,68.66666L303.467,66.633339L301.667,66L299.86699999999996,66.633339L299,68.66666L299,77.6667L290,77.6667L287.967,78.5333L287.33299999999997,80.3333L287.967,82.13329999999999L290,83L299,83L299,92L299.86699999999996,94.0333L301.667,94.66669999999999L303.467,94.0333L304.333,92L304.333,83L313.333,83L315.367,82.13329999999999L316,80.3333L315.367,78.5333L313.333,77.6667ZM121.6667,94.83330000000001L120.4,95.33330000000001L118.0333,97.7L115.7,95.33330000000001L114.4,94.83330000000001L113.3334,95.33330000000001L112.8333,96.4L113.3334,97.7L115.6834,100.05L113.3334,102.4L112.8333,103.6666L113.3334,104.7666L114.4,105.2666L115.7,104.7666L118.0333,102.4L120.4,104.7666L121.6667,105.2666L122.7667,104.7666L123.2667,103.6666L122.7667,102.4L120.4167,100.05L122.7667,97.7L123.2667,96.4L122.7667,95.33330000000001L121.6667,94.83330000000001ZM188.802,165.34910000000002L188.697,165.6096L188.046,168.994L188.801,172.536L190.823,175.498L193.681,177.404L252.926,201.344L256.33299999999997,201.948L259.825,201.24L262.80600000000004,199.205L264.70500000000004,196.312L264.804,196.07L287.072,205.071L297.073,180.361L277.486,172.445L279.132,169.56L281.58799999999997,161.4443L282.509,153.5097L282.048,145.6431L280.209,137.9323L277.201,130.81959999999998L272.91999999999996,124.1322L267.571,118.3233L261.231,113.4708L253.733,109.61529999999999L245.678,107.213L237.743,106.2567L229.842,106.7527L222.166,108.5566L215.014,111.6018L208.37,115.8777L202.522,121.19409999999999L197.702,127.574L193.823,135.0823L193.008,138.30790000000002L173.424,130.3942L164.45999999999998,152.6365L163.464,155.1073L188.802,165.34910000000002ZM197.999,140.3249L272.496,170.429L274.201,167.44L276.345,160.3558L277.158,153.357L276.752,146.4237L275.124,139.6012L272.46500000000003,133.31380000000001L268.68,127.4012L263.962,122.27680000000001L258.369,117.9959L251.734,114.5848L244.589,112.4537L237.59,111.6101L230.625,112.04740000000001L223.833,113.6435L217.519,116.33160000000001L211.63,120.1224L206.478,124.806L202.231,130.42610000000002L198.843,136.9845L197.999,140.3249ZM174.867,133.9L293.567,181.86700000000002L285.567,201.633L166.9,153.6667L174.867,133.9ZM191.167,156.9L192.833,158L194.8,158.3666L196.667,157.9666L198.233,156.9L199.333,155.23329999999999L199.7,153.26659999999998L199.3,151.4333L198.267,149.8333L196.6,148.73329999999999L194.633,148.3666L192.767,148.76659999999998L191.167,149.8333L190.067,151.5L189.7,153.4666L190.1,155.3333L191.167,156.9ZM212.8,165.63330000000002L214.467,166.733L216.433,167.1L218.3,166.7L219.867,165.66660000000002L221,164L221.333,162.0333L220.967,160.16660000000002L219.9,158.5666L218.233,157.4666L216.267,157.1L214.4,157.5L212.8,158.5666L211.7,160.23329999999999L211.333,162.2L211.733,164.0666L212.8,165.63330000000002ZM58.2,159.9667L57.3333,162L57.3333,169.333L50,169.333L47.96667,170.2L47.333330000000004,172L47.96667,173.8L50,174.667L57.3333,174.667L57.3333,182L58.2,184.03300000000002L60,184.667L61.8,184.03300000000002L62.6667,182L62.6667,174.667L70,174.667L72.0333,173.8L72.66669999999999,172L72.0333,170.2L70,169.333L62.6667,169.333L62.6667,162L61.8,159.9667L60,159.3333L58.2,159.9667ZM193.79,167.36599999999999L259.81,194.052L258.927,195.395L257.709,196.227L256.267,196.519L254.407,196.19L196.185,172.663L194.644,171.635L193.798,170.397L193.487,168.939L193.79,167.36599999999999ZM240.633,176.86700000000002L242.3,178L244.267,178.36700000000002L246.133,177.96699999999998L247.7,176.9L248.8,175.233L249.167,173.267L248.767,171.4L247.7,169.833L246.033,168.7L244.067,168.36700000000002L242.2,168.733L240.633,169.8L239.533,171.46699999999998L239.167,173.433L239.567,175.3L240.633,176.86700000000002ZM174.533,175.9L173.267,175.833L154.833,183.8L153.9,184.667L153.833,185.933L154.7,186.9L156,186.933L174.4,178.96699999999998L175.333,178.1L175.4,176.833L174.533,175.9ZM262.267,185.63299999999998L263.933,186.733L265.9,187.1L267.767,186.7L269.33299999999997,185.63299999999998L270.433,183.96699999999998L270.8,182L270.4,180.13299999999998L269.33299999999997,178.567L267.66700000000003,177.46699999999998L265.7,177.1L263.83299999999997,177.5L262.267,178.567L261.16700000000003,180.233L260.8,182.2L261.2,184.03300000000002L262.267,185.63299999999998ZM186.333,178.8L185.1,179.13299999999998L151,205.8L150.36700000000002,206.9L150.7,208.133L151.8,208.767L153.03300000000002,208.4L187.167,181.767L187.767,180.667L187.433,179.433L186.333,178.8ZM256.967,207.333L257.6,208.433L266.967,257.967L266.63300000000004,259.2L265.533,259.83299999999997L264.3,259.533L263.66700000000003,258.433L254.3,208.9L254.633,207.667L255.733,207L256.967,207.333ZM192.6,227.233L193.733,233.9L196.267,241.067L197.933,243.967L199.533,245.833L202.1,247.733L204.967,248.833L208.2,249.1L212.4,248.467L217.267,246.667L220.433,244.267L222.333,241.333L223.2,237.833L223.2,233.067L222.067,226.7L219.1,218.833L216.9,215.6L213.933,213.267L209.7,211.933L207.1,211.9L203.733,212.5L199.133,214.167L195.967,216.4L193.833,219.167L192.767,222.5L192.6,227.233ZM143.36669999999998,212.367L142.1667,212.7L135.8,217.667L135.1667,218.767L135.5,220L136.6,220.633L137.8333,220.3L144.2,215.333L144.833,214.2L144.5,212.967L143.36669999999998,212.367ZM265.733,218.1L265.733,219.4L274.9,242.033L275.8,242.967L277.067,242.967L277.967,242.067L277.967,240.8L268.83299999999997,218.133L267.933,217.233L266.66700000000003,217.233L265.733,218.1ZM205.2,237.533L203.3,231.533L202.133,225.433L202.133,222.3L203.1,220.1L205,219L207.167,219.067L209.1,220.5L210.633,223.267L212.6,229.5L213.8,236.567L213.6,238.767L213.033,240.233L212.033,241.3L210.733,241.9L208.7,241.8L206.733,240.3L205.2,237.533ZM152.4,260.233L169.067,253.167L171.7,259.33299999999997L179.667,255.933L177.067,249.767L181.2,248.033L178.167,240.933L174.033,242.667L165.46699999999998,222.433L157.46699999999998,225.8L149.2,252.7L152.4,260.233ZM129.9,222.867L128.6667,223.233L109.4333,238.267L108.8,239.367L109.1333,240.6L110.2333,241.233L111.4667,240.9L130.73329999999999,225.833L131.36669999999998,224.733L131,223.5L129.9,222.867ZM161.667,235.7L166.067,246.067L157.267,249.8L161.667,235.7ZM311.533,239.967L310.667,242L310.667,249.333L303.333,249.333L301.3,250.2L300.667,252L301.3,253.8L303.333,254.667L310.667,254.667L310.667,262L311.533,264.033L313.333,264.66700000000003L315.133,264.033L316,262L316,254.667L323.333,254.667L325.367,253.8L326,252L325.367,250.2L323.333,249.333L316,249.333L316,242L315.133,239.967L313.333,239.333L311.533,239.967ZM205.233,275.6L220.267,285.733L216.5,291.267L223.7,296.13300000000004L227.433,290.567L231.167,293.067L235.467,286.7L231.767,284.16700000000003L244.067,265.933L236.867,261.1L209.8,268.8L205.233,275.6ZM92.2667,269.3L90.9667,269.8L88.6334,272.16700000000003L86.2667,269.8L85,269.3L83.9,269.8L83.4,270.9L83.9,272.16700000000003L86.25,274.517L83.9,276.86699999999996L83.4,278.16700000000003L83.9,279.233L85,279.767L86.2667,279.233L88.6334,276.86699999999996L90.9667,279.233L92.2667,279.767L93.3334,279.233L93.83330000000001,278.16700000000003L93.3334,276.86699999999996L90.9834,274.517L93.3334,272.16700000000003L93.83330000000001,270.9L93.3334,269.8L92.2667,269.3ZM230.867,270L224.567,279.33299999999997L216.633,273.967L230.867,270ZM44.766663,308.9L46.66666,309.66700000000003L280,309.66700000000003L281.9,308.9L282.66700000000003,307L281.9,305.1L280,304.33299999999997L46.66666,304.33299999999997L44.766663,305.1L44,307L44.766663,308.9ZM291.433,308.9L293.33299999999997,309.66700000000003L301.667,309.66700000000003L303.567,308.9L304.333,307L303.567,305.1L301.667,304.33299999999997L293.33299999999997,304.33299999999997L291.433,305.1L290.66700000000003,307L291.433,308.9ZM321.433,308.9L323.333,309.66700000000003L353.333,309.66700000000003L355.233,308.9L356,307L355.233,305.1L353.333,304.33299999999997L323.333,304.33299999999997L321.433,305.1L320.667,307L321.433,308.9ZM121.4333,333.9L123.3333,334.667L146.667,334.667L148.567,333.9L149.333,332L148.567,330.1L146.667,329.333L123.3333,329.333L121.4333,330.1L120.6667,332L121.4333,333.9ZM159.767,333.9L161.667,334.667L263.33299999999997,334.667L265.233,333.9L266,332L265.233,330.1L263.33299999999997,329.333L161.667,329.333L159.767,330.1L159,332L159.767,333.9Z" fill-rule="evenodd" fill="currentColor" fill-opacity="1"/></g></g></g></svg>
