<svg xmlns="http://www.w3.org/2000/svg" xmlns:xlink="http://www.w3.org/1999/xlink" fill="none" version="1.1" width="32" height="32" viewBox="0 0 32 32"><defs><clipPath id="master_svg0_16_11091"><rect x="0" y="0" width="32" height="32" rx="0"/></clipPath></defs><g clip-path="url(#master_svg0_16_11091)"><g><path d="M5.4,2.75L26.6,2.75C28.0636,2.75,29.25,3.93645,29.25,5.4L29.25,13.35L23.95,13.35L23.95,8.05L8.05,8.05L8.05,13.35L2.75,13.35L2.75,5.4C2.75,3.93645,3.93645,2.75,5.4,2.75ZM8.05,18.65L8.05,13.35L13.35,13.35L13.35,18.65L8.05,18.65ZM8.05,23.95L8.05,18.65L2.75,18.65L2.75,26.6C2.75,28.0636,3.93645,29.25,5.4,29.25L26.6,29.25C28.0636,29.25,29.25,28.0636,29.25,26.6L29.25,18.65L23.95,18.65L23.95,13.35L18.65,13.35L18.65,18.65L23.95,18.65L23.95,23.95L8.05,23.95Z" fill-rule="evenodd" fill="#000000" fill-opacity="1"/></g></g></svg>