<svg xmlns="http://www.w3.org/2000/svg" xmlns:xlink="http://www.w3.org/1999/xlink" fill="none" version="1.1" width="512" height="512" viewBox="0 0 512 512"><defs><clipPath id="master_svg0_16_11088"><rect x="0" y="0" width="512" height="512" rx="0"/></clipPath></defs><g clip-path="url(#master_svg0_16_11088)"><g><path d="M86.4,44L425.6,44C449.017,44,468,62.9831,468,86.4L468,213.6L383.2,213.6L383.2,128.8L128.8,128.8L128.8,213.6L44,213.6L44,86.4C44,62.9831,62.9831,44,86.4,44ZM128.8,298.4L128.8,213.6L213.6,213.6L213.6,298.4L128.8,298.4ZM128.8,383.2L128.8,298.4L44,298.4L44,425.6C44,449.017,62.9831,468,86.4,468L425.6,468C449.017,468,468,449.017,468,425.6L468,298.4L383.2,298.4L383.2,213.6L298.4,213.6L298.4,298.4L383.2,298.4L383.2,383.2L128.8,383.2Z" fill-rule="evenodd" fill="#000000" fill-opacity="1"/></g></g></svg>